<?xml version="1.0" encoding="UTF-8"?>
<!-- Created with Grafika (https://www.grafika.cc/) -->
<svg xmlns="http://www.w3.org/2000/svg" xmlns:svg="http://www.w3.org/2000/svg" xmlns:xlink="http://www.w3.org/1999/xlink" width="2048" height="2047.9" viewBox="0 0 1080 1080" preserveAspectRatio="xMidYMid meet">
	<rect x="0" y="0" width="1080" height="1080" fill="#FFFFFF" />
	<g transform="matrix(1, 0, 0, 1, 540, 540)">
		<g transform="matrix(1, 0, 0, 1, 11.327350616455078, 15.546632766723633)">
			<path d="M-119.78,396.96 C-119.37,396.93 -118.97,397.14 -118.77,397.53 C-118.51,398.05 -118.72,398.68 -119.24,398.94 C-119.75,399.2 -120.38,398.99 -120.64,398.47 C-120.9,397.96 -120.7,397.33 -120.18,397.07 C-120.05,397 -119.91,396.97 -119.78,396.96 Z" fill-rule="evenodd" style="fill:#0215D7;" />
			<path d="M-106.43,277.55 C-106.39,277.54 -106.36,277.55 -106.32,277.55 C-105.84,277.57 -105.42,277.93 -105.34,278.43 L-105.34,278.43 C-105.25,279 -105.63,279.54 -106.21,279.63 C-106.78,279.72 -107.32,279.33 -107.41,278.76 C-107.5,278.19 -107.11,277.65 -106.54,277.56 C-106.5,277.55 -106.46,277.55 -106.43,277.55 Z" fill-rule="evenodd" style="fill:#0215D7;" />
			<path d="M-155.17,329.8 C-155.54,329.78 -155.89,329.96 -156.09,330.27 C-156.66,331.13 -157.16,331.86 -157.72,332.41 C-158.27,332.95 -158.92,333.33 -159.69,333.78 C-159.94,333.92 -160.12,334.16 -160.19,334.44 C-160.25,334.71 -160.21,335 -160.05,335.24 L-159.11,336.74 L-158.86,339.7 C-158.83,340.07 -158.6,340.4 -158.26,340.56 L-155.97,341.63 C-155.62,341.79 -155.21,341.75 -154.9,341.52 L-152.5,339.71 C-152.16,339.46 -152.01,339.03 -152.11,338.63 L-152.56,336.74 C-152.61,336.54 -152.72,336.35 -152.88,336.21 L-153.93,335.25 L-152.28,331.33 C-152.15,331.01 -152.18,330.65 -152.36,330.36 C-152.55,330.07 -152.86,329.89 -153.21,329.88 L-155.17,329.8 Z" fill-rule="evenodd" style="fill:#0215D7;" />
			<path d="M-144.6,340.91 C-144.47,340.91 -144.35,340.92 -144.22,340.96 C-143.9,341.06 -143.64,341.31 -143.54,341.63 L-142.48,344.85 C-142.4,345.08 -142.41,345.33 -142.5,345.55 L-143.6,348.36 C-143.67,348.54 -143.79,348.69 -143.94,348.81 L-147.41,351.5 C-147.53,351.6 -147.67,351.66 -147.82,351.7 L-151.17,352.48 C-151.46,352.55 -151.77,352.49 -152.02,352.32 L-153.94,350.96 C-154.14,350.82 -154.28,350.61 -154.35,350.38 L-154.93,348.29 L-156.41,344.46 C-156.59,344 -156.42,343.48 -156.01,343.21 L-152.85,341.13 C-152.38,340.82 -151.77,340.93 -151.43,341.38 L-150.26,342.94 L-148.35,343.57 L-145.17,341.13 C-145,341 -144.8,340.93 -144.6,340.91 Z" fill-rule="evenodd" style="fill:#0215D7;" />
			<path d="M-125.85,335.51 C-125.66,335.51 -125.46,335.56 -125.3,335.66 C-125.03,335.83 -124.85,336.11 -124.81,336.42 L-124.22,341.05 L-122.7,342.29 C-122.34,342.58 -122.21,343.09 -122.4,343.52 L-124.43,348.2 C-124.56,348.48 -124.8,348.7 -125.1,348.78 C-125.39,348.87 -125.71,348.82 -125.97,348.65 L-130.1,345.91 C-130.57,345.6 -130.71,344.97 -130.41,344.49 L-128.59,341.54 C-129.13,340.48 -129.8,339.04 -129.45,337.89 C-129.26,337.29 -128.85,336.87 -128.44,336.57 C-127.78,336.1 -126.88,335.8 -126.19,335.56 C-126.08,335.52 -125.96,335.51 -125.85,335.51 Z" fill-rule="evenodd" style="fill:#0215D7;" />
			<path d="M-112.17,384.98 C-112.1,384.98 -112.03,384.99 -111.97,385.01 C-111.7,385.08 -111.47,385.25 -111.33,385.5 L-110.32,387.23 C-110.17,387.49 -110.14,387.81 -110.24,388.09 L-110.83,389.84 C-110.94,390.19 -111.23,390.45 -111.58,390.53 L-115.14,391.36 C-115.17,391.36 -115.2,391.37 -115.23,391.37 L-119.32,391.98 L-124.07,394.98 C-124.5,395.25 -125.05,395.18 -125.39,394.81 L-127.8,392.27 C-127.88,392.18 -127.95,392.08 -128,391.96 L-129.18,389.25 C-129.32,388.93 -129.29,388.56 -129.11,388.27 C-128.92,387.97 -128.6,387.79 -128.26,387.78 L-125.21,387.69 L-119.32,385.52 C-119.09,385.44 -118.85,385.43 -118.63,385.51 L-115.92,386.41 L-114.09,385.89 L-112.76,385.12 C-112.58,385.01 -112.38,384.96 -112.17,384.98 Z" fill-rule="evenodd" style="fill:#0215D7;" />
			<path d="M-148.04,384.98 C-147.85,384.97 -147.66,385.03 -147.49,385.13 L-143.65,387.48 L-137.56,389.65 C-137.33,389.73 -137.13,389.9 -137.01,390.11 L-132.21,398.36 C-132.01,398.69 -132.02,399.1 -132.22,399.43 C-132.41,399.76 -132.77,399.95 -133.16,399.93 L-141.21,399.6 C-141.43,399.59 -141.63,399.52 -141.8,399.39 L-147.13,395.35 L-153.8,397.36 L-156.9,400.53 C-157.3,400.94 -157.96,400.95 -158.37,400.55 L-164.37,394.87 C-164.57,394.68 -164.68,394.42 -164.69,394.15 L-164.86,389.55 C-164.88,389.01 -164.48,388.54 -163.94,388.47 L-161.85,388.21 C-161.83,388.21 -161.81,388.2 -161.79,388.2 L-156.26,387.87 L-148.39,385.04 C-148.28,385 -148.16,384.98 -148.04,384.98 Z" fill-rule="evenodd" style="fill:#0215D7;" />
			<path d="M-184.56,366.35 C-184.65,366.35 -184.75,366.37 -184.84,366.39 L-192.19,368.4 C-192.64,368.52 -192.95,368.92 -192.96,369.38 L-193.15,376.63 C-193.16,376.97 -193.01,377.28 -192.75,377.49 L-187.39,381.65 C-187.25,381.75 -187.1,381.82 -186.93,381.85 L-178.54,383.35 L-175.15,386.7 C-174.92,386.93 -174.58,387.03 -174.25,386.98 C-173.93,386.93 -173.64,386.73 -173.49,386.43 L-171.76,383.08 C-171.67,382.92 -171.63,382.74 -171.64,382.56 L-171.74,380.06 L-169.27,380.05 L-166.19,381.55 C-165.88,381.7 -165.52,381.69 -165.22,381.53 C-164.92,381.36 -164.73,381.06 -164.69,380.72 L-164.37,377.83 C-164.32,377.43 -164.51,377.04 -164.85,376.82 L-167.65,375.06 L-167.66,375.06 C-168.47,374.12 -169.73,372.64 -171.48,372.72 L-171.49,372.72 C-171.66,372.73 -171.83,372.76 -171.99,372.79 C-172.99,373 -174.04,373.69 -175.01,374.44 L-176.06,370.48 C-176.13,370.23 -176.29,370.01 -176.51,369.87 L-179.9,367.67 C-179.99,367.62 -180.09,367.57 -180.19,367.54 L-184.28,366.39 C-184.37,366.37 -184.47,366.35 -184.56,366.35 Z" fill-rule="evenodd" style="fill:#0215D7;" />
			<path d="M-333.7,248.4 C-333.59,248.39 -333.48,248.4 -333.37,248.43 L-328.4,249.71 C-328.07,249.79 -327.8,250.04 -327.68,250.36 L-327,252.16 C-326.94,252.33 -326.92,252.51 -326.95,252.7 L-327.51,256.12 C-327.57,256.52 -327.87,256.85 -328.26,256.96 C-328.66,257.06 -329.08,256.93 -329.34,256.62 L-330.7,255.01 L-333.12,255.86 C-333.66,256.05 -334.24,255.78 -334.45,255.25 L-335.44,252.72 C-335.52,252.51 -335.53,252.27 -335.47,252.05 L-334.64,249.17 L-334.64,249.16 C-334.64,249.16 -334.64,249.16 -334.64,249.16 L-334.64,249.16 L-334.64,249.15 C-334.61,249.06 -334.57,248.96 -334.51,248.87 C-334.33,248.59 -334.02,248.42 -333.7,248.4 Z" fill-rule="evenodd" style="fill:#0215D7;" />
			<path d="M-356.55,235.69 C-356.46,235.69 -356.37,235.7 -356.29,235.73 C-354.94,236.11 -353.42,236.54 -352.49,237.01 C-351.45,237.55 -351.08,238.17 -350.81,238.68 L-350.81,238.68 L-348.78,241.48 C-348.62,241.7 -348.56,241.96 -348.59,242.23 L-349.23,247.49 C-349.29,247.98 -349.68,248.36 -350.17,248.41 C-350.66,248.45 -351.12,248.16 -351.27,247.69 L-352.33,244.45 L-353.73,242.8 L-356.25,241.9 C-356.61,241.77 -356.87,241.45 -356.93,241.08 L-357.61,236.9 C-357.66,236.55 -357.54,236.19 -357.27,235.95 C-357.07,235.77 -356.81,235.68 -356.55,235.69 Z" fill-rule="evenodd" style="fill:#0215D7;" />
			<path d="M-398.33,173.07 C-398.59,173.08 -398.85,173.19 -399.04,173.38 L-406.15,180.71 C-406.27,180.83 -406.35,180.98 -406.4,181.14 L-410.05,193.03 C-410.06,193.04 -410.06,193.05 -410.06,193.06 L-412.15,200.82 C-412.23,201.14 -412.17,201.48 -411.96,201.73 C-409.01,205.55 -406.48,208.9 -406.55,212.04 C-406.55,212.1 -406.55,212.16 -406.56,212.22 C-406.65,213.97 -407.53,215.74 -408.4,217.46 C-408.99,218.62 -409.69,219.95 -409.75,221.06 C-409.89,223.6 -407.14,224.38 -405.38,224.77 C-404.73,224.91 -404.05,225.03 -403.4,225.15 C-403.13,225.2 -402.86,225.14 -402.63,224.99 L-396.46,220.84 C-396.19,220.66 -396.02,220.36 -396,220.03 L-395.53,211.17 C-395.52,211.02 -395.54,210.88 -395.59,210.74 L-397.79,204.88 L-397.8,204.86 L-397.8,204.85 L-400.65,196.48 C-399.31,193.97 -397.95,191.29 -397.37,187.59 C-396.76,183.75 -397.01,178.83 -397.24,174.06 C-397.26,173.65 -397.53,173.28 -397.92,173.13 C-398.02,173.1 -398.12,173.08 -398.22,173.07 C-398.25,173.07 -398.29,173.06 -398.33,173.07 Z" fill-rule="evenodd" style="fill:#0215D7;" />
			<path d="M-390.3,219.23 C-390.21,219.23 -390.13,219.24 -390.04,219.26 C-389.71,219.34 -389.43,219.57 -389.31,219.89 L-387.05,225.51 C-386.85,226.01 -387.06,226.57 -387.53,226.82 L-391.27,228.83 L-391.82,231.4 L-392.12,235.41 C-392.14,235.71 -392.3,235.99 -392.54,236.17 L-396.15,238.83 C-396.49,239.08 -396.96,239.1 -397.32,238.88 L-403.03,235.34 C-403.48,235.06 -403.65,234.48 -403.42,234 L-400.87,228.61 C-400.81,228.49 -400.73,228.38 -400.63,228.29 L-390.98,219.51 C-390.79,219.33 -390.55,219.24 -390.3,219.23 Z" fill-rule="evenodd" style="fill:#0215D7;" />
			<path d="M-407.28,233.11 C-407.32,233.11 -407.37,233.12 -407.42,233.13 C-407.8,233.19 -408.12,233.47 -408.24,233.83 L-410.31,240.16 C-410.33,240.19 -410.34,240.23 -410.34,240.27 L-411.99,248.19 C-412.06,248.56 -411.93,248.95 -411.64,249.2 L-401.33,257.98 C-401.29,258.01 -401.25,258.04 -401.21,258.07 L-387.76,266.48 L-379.09,279.46 C-376.18,284.6 -373.09,290.09 -368.68,292.83 C-364.32,295.54 -358.8,295.49 -353.65,295.43 L-337.21,306.27 C-336.93,306.45 -336.57,306.49 -336.25,306.37 C-335.93,306.24 -335.7,305.98 -335.62,305.65 L-333.45,296.94 C-333.36,296.59 -333.46,296.22 -333.71,295.96 L-344.08,285.07 C-344.3,284.85 -344.61,284.73 -344.92,284.75 L-359.56,285.83 L-369.73,274.01 L-371.13,264.34 C-371.17,264.12 -371.27,263.91 -371.43,263.75 L-377.52,257.67 C-377.61,257.58 -377.72,257.5 -377.84,257.45 L-386.08,253.81 L-394.46,248.76 L-400.78,240.8 L-406.41,233.52 C-406.62,233.25 -406.94,233.1 -407.28,233.11 Z" fill-rule="evenodd" style="fill:#0215D7;" />
			<path d="M-125.2,127.06 C-124.9,127.06 -124.62,127.2 -124.42,127.42 C-124.2,127.68 -124.12,128.04 -124.2,128.37 L-126.03,135.43 L-122.39,141.34 L-114.26,143.46 C-112.44,139.79 -110.48,135.86 -109.38,135 C-109.21,134.88 -108.82,134.61 -108.29,134.69 C-107.79,134.77 -107.5,135.11 -107.37,135.37 C-107.3,135.5 -107.26,135.63 -107.23,135.73 C-106.79,137.44 -108.26,144.5 -109.55,150.93 C-109.58,151.04 -109.62,151.15 -109.68,151.25 L-112.68,156.45 C-112.8,156.65 -112.98,156.81 -113.2,156.9 L-119.76,159.51 C-119.9,159.57 -120.06,159.6 -120.21,159.59 L-127.76,159.12 C-128.08,159.1 -128.38,158.93 -128.56,158.66 L-135.63,148.22 L-144.27,150.75 C-144.64,150.86 -145.04,150.76 -145.31,150.49 L-155.44,140.32 C-155.7,140.06 -155.8,139.67 -155.7,139.31 L-152.58,127.86 C-152.45,127.37 -151.97,127.04 -151.46,127.1 L-138.84,128.43 L-125.32,127.06 C-125.28,127.06 -125.24,127.06 -125.2,127.06 Z" fill-rule="evenodd" style="fill:#0215D7;" />
			<path d="M-363.09,9.87 C-363.51,9.86 -363.89,10.11 -364.05,10.49 L-367.96,19.34 C-368.07,19.59 -368.08,19.88 -367.98,20.14 L-363.32,32.2 L-366.54,48.08 L-379.67,51.69 C-379.92,51.76 -380.12,51.91 -380.26,52.12 L-385.71,60.22 C-385.75,60.27 -385.79,60.33 -385.81,60.4 L-388.93,67.9 L-396.21,74.51 C-396.46,74.74 -396.59,75.08 -396.54,75.43 C-396.03,79.14 -395.68,82.17 -396.49,83.56 C-397.18,84.73 -398.95,84.9 -401.75,84.99 L-404.03,84.92 L-408.22,84.79 L-420.58,84.42 C-420.86,84.41 -421.14,84.51 -421.34,84.71 C-421.54,84.9 -421.66,85.17 -421.66,85.45 L-421.96,105.6 C-421.97,105.79 -421.91,105.99 -421.81,106.16 L-414.32,118.42 C-414.15,118.71 -413.84,118.9 -413.5,118.92 L-403.38,119.6 L-403.37,119.6 L-399.39,120.06 L-396.01,125.63 C-395.86,125.87 -395.63,126.04 -395.35,126.11 L-386.81,128.13 L-389.29,133.74 C-389.37,133.91 -389.4,134.1 -389.38,134.28 L-388.37,142.72 C-388.33,143.07 -388.12,143.37 -387.81,143.53 L-380.98,147.03 L-384.87,155.16 C-385.1,155.64 -384.93,156.22 -384.48,156.5 L-376.28,161.61 C-376.2,161.66 -376.12,161.69 -376.03,161.72 L-366.39,164.61 L-370.46,170.59 L-375.15,173.03 C-375.36,173.13 -375.53,173.31 -375.62,173.52 L-379.3,181.39 C-379.42,181.64 -379.43,181.92 -379.34,182.18 L-377.49,187.56 L-377.14,196.64 C-377.13,196.98 -376.96,197.29 -376.69,197.47 L-372.34,200.43 L-372.35,208.47 C-372.35,208.55 -372.34,208.63 -372.32,208.7 L-370.93,214.8 C-370.88,215 -370.78,215.18 -370.63,215.32 L-362.74,222.96 C-362.66,223.04 -362.57,223.1 -362.47,223.15 L-356.58,226.05 C-356.41,226.13 -356.23,226.17 -356.04,226.15 L-350.43,225.76 L-347.51,234.47 C-347.33,235.02 -346.74,235.31 -346.2,235.14 L-338,232.47 L-337.06,239.29 C-337.01,239.62 -336.81,239.91 -336.51,240.07 L-329.72,243.65 C-329.47,243.79 -329.17,243.81 -328.9,243.72 L-321.91,241.38 L-324.04,244.24 C-324.18,244.43 -324.25,244.66 -324.24,244.9 L-323.95,253.58 L-323.95,253.68 L-322.6,263.49 C-322.56,263.77 -322.41,264.03 -322.18,264.19 L-315.5,269.03 L-316.89,275.46 C-316.96,275.8 -316.86,276.16 -316.61,276.41 L-310.03,283.08 C-309.77,283.35 -309.4,283.45 -309.04,283.37 L-302.51,281.81 L-297.04,287.81 L-294.71,293.51 C-294.6,293.8 -294.36,294.01 -294.07,294.11 L-289.33,295.7 L-283.45,301.99 L-280.93,305.06 L-277.85,310.54 L-276.71,317.76 C-276.64,318.19 -276.31,318.54 -275.88,318.62 L-272.46,319.31 L-271.66,321.98 C-271.61,322.14 -271.53,322.28 -271.41,322.4 L-266.78,327.24 C-266.72,327.3 -266.66,327.35 -266.59,327.4 L-258.41,332.59 L-257.45,339.36 C-257.4,339.66 -257.23,339.92 -256.98,340.09 L-246.7,346.78 C-246.63,346.82 -246.54,346.86 -246.46,346.89 L-238.66,349.51 L-232.52,353.35 L-225.12,360.74 C-224.98,360.87 -224.81,360.97 -224.62,361.01 L-214.81,363.36 L-214.71,363.38 L-198.9,365.62 C-198.79,365.63 -198.68,365.63 -198.58,365.62 L-190.23,364.23 C-189.85,364.17 -189.53,363.9 -189.41,363.53 C-189.29,363.16 -189.38,362.75 -189.65,362.47 L-196.32,355.53 C-196.46,355.38 -196.65,355.28 -196.86,355.23 L-202.29,354.06 C-202.4,354.04 -202.51,354.04 -202.62,354.05 L-206.94,354.51 L-207.48,351.79 C-207.56,351.41 -207.82,351.11 -208.18,350.99 L-210.08,350.37 L-208.66,348.34 C-208.45,348.04 -208.41,347.64 -208.57,347.3 L-213.52,336.53 C-213.58,336.38 -213.69,336.24 -213.82,336.14 L-224.03,328.1 C-224.14,328.01 -224.26,327.95 -224.39,327.91 L-231.15,325.93 C-231.38,325.87 -231.62,325.88 -231.84,325.96 L-240.65,329.53 L-244.2,327.32 L-242.55,319.93 C-242.43,319.37 -242.78,318.81 -243.35,318.68 L-250.59,317.07 L-255.75,312.62 C-255.85,312.53 -255.96,312.47 -256.09,312.42 L-259.93,311.08 L-256.32,308.46 C-256.04,308.25 -255.87,307.91 -255.89,307.55 C-255.91,307.2 -256.11,306.88 -256.42,306.7 L-259.55,304.9 L-259.56,300.56 C-259.56,300.47 -259.57,300.37 -259.6,300.28 L-262.49,290.08 C-262.55,289.85 -262.69,289.66 -262.88,289.52 L-270.4,283.96 L-273.08,276.74 C-273.17,276.5 -273.35,276.3 -273.58,276.18 L-284.47,270.5 L-286.62,259.97 C-286.67,259.71 -286.82,259.48 -287.04,259.32 L-292.87,255.22 L-288.58,249.85 C-288.3,249.5 -288.28,249 -288.53,248.62 L-293.8,240.6 L-293.87,240.5 L-298.99,234.46 L-297.19,225.75 L-292.44,219 L-286.34,218.76 L-280.29,227.02 C-280.16,227.2 -279.98,227.33 -279.78,227.39 L-268.06,231.27 L-260.55,238.73 C-260.35,238.93 -260.08,239.04 -259.8,239.03 C-259.51,239.03 -259.25,238.91 -259.05,238.7 L-255.9,235.37 L-249.86,241.79 C-249.82,241.83 -249.77,241.87 -249.72,241.91 L-242.08,247.6 C-241.86,249.75 -241.62,251.97 -241.16,253.73 C-240.65,255.71 -239.86,257.15 -238.25,258.75 C-236.75,260.23 -234.52,261.88 -232.35,263.48 L-229.94,269.66 L-234.02,276.27 C-234.3,276.72 -234.19,277.31 -233.77,277.64 L-229.08,281.33 C-229.01,281.38 -228.93,281.43 -228.84,281.47 L-221.95,284.35 L-217.62,287.56 L-214.38,294.14 C-214.31,294.27 -214.22,294.39 -214.1,294.48 L-204.44,302.34 L-197.85,309.14 L-196.89,311.45 C-196.83,311.58 -196.75,311.7 -196.65,311.8 L-189.73,318.53 C-189.63,318.62 -189.52,318.69 -189.4,318.74 L-182.25,321.74 L-174.55,327.37 C-174.47,327.43 -174.39,327.47 -174.3,327.51 L-168.81,329.54 C-168.48,329.66 -168.11,329.61 -167.83,329.41 L-161.19,324.6 C-160.96,324.43 -160.81,324.19 -160.77,323.91 C-160.72,323.63 -160.79,323.35 -160.96,323.13 L-166.97,315 L-169.91,310.46 C-169.94,310.41 -169.98,310.36 -170.02,310.32 L-174.38,305.55 L-175.82,300.68 L-175.07,296.82 L-167.97,300.35 L-164.08,307.66 C-163.88,308.04 -163.47,308.25 -163.04,308.21 L-156.72,307.52 C-156.43,307.49 -156.16,307.33 -155.98,307.09 C-155.81,306.84 -155.75,306.54 -155.81,306.25 L-156.09,305.02 L-151.35,308.1 C-151.3,308.13 -151.25,308.15 -151.2,308.17 L-146.52,310.25 C-146.05,310.46 -145.51,310.3 -145.22,309.87 L-141.7,304.58 C-141.54,304.33 -141.49,304.02 -141.56,303.73 L-143.19,297.44 L-139.54,292.7 L-134.27,290.85 L-130.54,294.85 C-130.14,295.27 -129.49,295.3 -129.06,294.91 L-123.06,289.44 C-122.74,289.15 -122.63,288.7 -122.79,288.3 L-125.78,280.44 C-125.9,280.12 -126.16,279.89 -126.48,279.8 L-126.57,279.77 C-128.71,279.19 -130.44,278.68 -131.29,277.96 C-131.81,277.52 -132.16,276.91 -131.19,273.76 C-130.27,270.76 -128.32,265.98 -126.32,261.1 L-119.19,254.97 L-119.11,254.9 L-110.28,245.53 L-99.04,244.74 C-98.98,244.74 -98.93,244.73 -98.87,244.71 L-89.21,242.33 C-88.86,242.24 -88.58,241.98 -88.47,241.64 L-85.69,233.14 L-78.43,215.47 C-78.35,215.26 -78.33,215.03 -78.39,214.81 L-82.47,199.07 C-82.56,198.74 -82.81,198.46 -83.13,198.35 L-91.99,195.21 C-92.32,195.09 -92.69,195.15 -92.97,195.36 L-101.66,201.92 C-101.91,202.11 -102.06,202.39 -102.08,202.69 L-102.99,216.9 L-110.81,227.56 L-123.64,232.59 C-123.98,232.72 -124.23,233.03 -124.29,233.39 L-125.84,242.93 L-133.17,249.89 L-137.59,244.71 C-137.68,244.61 -137.78,244.52 -137.9,244.46 L-146.94,239.74 C-147.23,239.59 -147.57,239.58 -147.87,239.72 L-156.18,243.63 L-156.27,243.67 L-162.73,247.44 L-167.96,240.91 C-168.06,240.8 -168.17,240.71 -168.3,240.64 L-173.74,237.79 C-174.24,237.53 -174.85,237.71 -175.13,238.2 L-183.89,253.47 L-194.36,256.11 C-194.64,256.18 -194.88,256.37 -195.02,256.63 L-199.26,264.63 L-205.21,270.76 L-205.93,264.15 L-202.18,255.97 C-202.04,255.67 -202.06,255.32 -202.22,255.02 L-207.74,245.26 L-200.2,239.36 C-200.07,239.26 -199.97,239.13 -199.9,238.99 L-196.25,231.34 L-189.64,228.76 C-189.13,228.57 -188.86,228.01 -189.02,227.49 L-190.78,221.6 L-175.4,211.05 C-175.25,210.94 -175.13,210.8 -175.05,210.64 L-159.93,179.31 C-159.69,178.81 -159.88,178.21 -160.37,177.94 L-167.71,173.9 L-167.55,163.08 C-167.55,162.94 -167.58,162.81 -167.63,162.68 C-169.08,158.96 -169.8,156.65 -167.46,155.29 C-166.02,154.45 -163.47,153.9 -160.95,153.38 C-159.1,153 -157.12,152.6 -156.11,152.01 C-155.95,151.92 -155.78,151.8 -155.63,151.66 L-155.63,151.66 C-155.5,151.54 -155.36,151.38 -155.26,151.17 C-154.97,150.6 -155.1,150.03 -155.34,149.62 C-155.79,148.83 -156.92,148.16 -158.05,147.58 C-160.45,146.36 -164.27,144.96 -167.98,143.59 C-168.07,143.55 -168.17,143.53 -168.34,143.52 L-168.28,143.52 C-173.21,143.2 -177.71,142.87 -180.79,140.67 C-183.87,138.46 -185.66,134.28 -187.6,129.68 C-187.68,129.49 -187.8,129.34 -187.97,129.22 L-201.21,120.07 C-201.3,120.01 -201.4,119.96 -201.52,119.92 L-201.64,119.89 C-208.09,118.06 -214.73,116.19 -220.46,116.19 C-220.52,116.19 -220.54,116.19 -220.6,116.19 C-226.33,116.21 -231.11,118.14 -235.67,120.01 L-235.67,120.01 L-246.02,117.96 C-246.33,117.9 -246.65,117.97 -246.89,118.17 L-252.49,122.77 L-256.57,124.65 C-256.9,124.8 -257.14,125.12 -257.17,125.49 C-257.61,129.94 -258.06,132.9 -258.94,133.31 C-258.98,133.33 -259.04,133.34 -259.13,133.34 C-260.26,133.34 -262.32,131.61 -264.98,129.24 C-265.2,129.04 -265.51,128.94 -265.81,128.98 L-275.36,130.24 C-275.59,130.27 -275.81,130.38 -275.97,130.55 L-278.76,133.46 C-278.94,133.65 -279.04,133.89 -279.05,134.15 L-279.31,141.66 L-283.3,141.67 L-283.3,141.67 C-285.56,140.69 -287.31,139.88 -287.83,139.21 C-287.99,139.01 -288.02,138.82 -287.13,137.63 C-286.93,137.37 -286.87,137.02 -286.96,136.71 C-287.06,136.39 -287.3,136.13 -287.61,136.02 L-298.49,132.05 L-305.96,122.44 C-306.05,122.33 -306.16,122.24 -306.28,122.17 L-319.14,114.96 L-324.11,109.69 L-321.17,103.03 C-321.03,102.71 -321.05,102.34 -321.24,102.05 L-324.18,97.29 C-324.21,97.25 -324.23,97.21 -324.27,97.18 L-327.58,93.17 L-322.52,92.45 C-322.19,92.4 -321.9,92.2 -321.74,91.9 L-319.59,87.86 C-319.46,87.62 -319.43,87.34 -319.5,87.08 L-322.33,76.95 L-314.01,69.06 C-313.91,68.96 -313.83,68.85 -313.77,68.71 L-308.25,55.88 C-308.13,55.6 -308.14,55.27 -308.28,54.99 L-312.95,45.81 C-313.13,45.45 -313.5,45.23 -313.9,45.24 L-324.11,45.44 L-325.78,36.99 C-325.8,36.87 -325.85,36.75 -325.91,36.64 L-330.71,28.77 C-330.95,28.38 -331.42,28.19 -331.87,28.3 L-340.45,30.49 L-345.79,27.65 L-349.32,10.84 C-349.42,10.36 -349.84,10.01 -350.33,10.01 L-363.09,9.87 Z" fill-rule="evenodd" style="fill:#0215D7;" />
		</g>
		<g transform="matrix(1.9186949729919434, 0, 0, 1.9186949729919434, -260.3327941894531, 197.93539428710938)">
			<path d="M-19.21,7.7 L-21.27,7.7 L-21.27,0.08 L-29.65,0.08 L-29.65,7.7 L-31.71,7.7 L-31.71,-8.64 L-29.65,-8.64 L-29.65,-1.73 L-21.27,-1.73 L-21.27,-8.64 L-19.21,-8.64 L-19.21,7.7 ZM-10.28,-4.79 Q-8.7,-4.79 -7.57,-4.11 Q-6.43,-3.42 -5.83,-2.17 Q-5.22,-0.93 -5.22,0.75 L-5.22,1.96 L-13.62,1.96 Q-13.58,4.04 -12.56,5.13 Q-11.54,6.22 -9.71,6.22 Q-8.54,6.22 -7.64,6 Q-6.73,5.78 -5.77,5.37 L-5.77,7.13 Q-6.71,7.54 -7.62,7.74 Q-8.54,7.93 -9.8,7.93 Q-11.54,7.93 -12.88,7.22 Q-14.21,6.51 -14.96,5.1 Q-15.71,3.7 -15.71,1.66 Q-15.71,-0.36 -15.03,-1.8 Q-14.35,-3.24 -13.13,-4.02 Q-11.91,-4.79 -10.28,-4.79 ZM-10.3,-3.15 Q-11.74,-3.15 -12.58,-2.22 Q-13.41,-1.29 -13.58,0.35 L-7.33,0.35 Q-7.33,-0.7 -7.65,-1.47 Q-7.97,-2.26 -8.62,-2.7 Q-9.27,-3.15 -10.3,-3.15 ZM5.89,4.32 Q5.89,5.51 5.29,6.31 Q4.69,7.11 3.59,7.52 Q2.49,7.93 0.98,7.93 Q-0.3,7.93 -1.22,7.73 Q-2.15,7.52 -2.86,7.16 L-2.86,5.32 Q-2.13,5.69 -1.09,6 Q-0.04,6.31 1.03,6.31 Q2.57,6.31 3.25,5.81 Q3.94,5.32 3.94,4.5 Q3.94,4.04 3.68,3.68 Q3.43,3.31 2.78,2.94 Q2.13,2.57 0.92,2.12 Q-0.27,1.66 -1.12,1.2 Q-1.97,0.75 -2.43,0.1 Q-2.88,-0.54 -2.88,-1.55 Q-2.88,-3.1 -1.62,-3.94 Q-0.34,-4.79 1.72,-4.79 Q2.84,-4.79 3.81,-4.58 Q4.78,-4.36 5.63,-3.97 L4.95,-2.37 Q4.16,-2.69 3.31,-2.92 Q2.47,-3.15 1.58,-3.15 Q0.34,-3.15 -0.31,-2.75 Q-0.96,-2.35 -0.96,-1.66 Q-0.96,-1.16 -0.67,-0.8 Q-0.37,-0.45 0.33,-0.11 Q1.03,0.22 2.2,0.68 Q3.36,1.11 4.19,1.57 Q5.01,2.02 5.45,2.68 Q5.89,3.33 5.89,4.32 ZM12.96,6.28 Q13.41,6.28 13.89,6.21 Q14.37,6.12 14.68,6.03 L14.68,7.56 Q14.35,7.73 13.75,7.83 Q13.16,7.93 12.61,7.93 Q11.65,7.93 10.84,7.6 Q10.03,7.27 9.52,6.45 Q9.02,5.62 9.02,4.13 L9.02,-3.01 L7.28,-3.01 L7.28,-3.97 L9.04,-4.77 L9.84,-7.38 L11.03,-7.38 L11.03,-4.56 L14.58,-4.56 L14.58,-3.01 L11.03,-3.01 L11.03,4.09 Q11.03,5.21 11.57,5.75 Q12.11,6.28 12.96,6.28 ZM19.14,-4.56 L19.14,7.7 L17.12,7.7 L17.12,-4.56 L19.14,-4.56 ZM18.15,-9.17 Q18.61,-9.17 18.96,-8.86 Q19.32,-8.55 19.32,-7.88 Q19.32,-7.25 18.96,-6.92 Q18.61,-6.6 18.15,-6.6 Q17.65,-6.6 17.3,-6.92 Q16.96,-7.25 16.96,-7.88 Q16.96,-8.55 17.3,-8.86 Q17.65,-9.17 18.15,-9.17 ZM27.68,-4.77 Q29.92,-4.77 30.99,-3.79 Q32.07,-2.8 32.07,-0.65 L32.07,7.7 L30.61,7.7 L30.22,5.97 L30.13,5.97 Q29.6,6.62 29.04,7.07 Q28.48,7.52 27.76,7.73 Q27.04,7.93 26.01,7.93 Q24.91,7.93 24.02,7.55 Q23.15,7.16 22.64,6.35 Q22.13,5.53 22.13,4.29 Q22.13,2.46 23.58,1.47 Q25.02,0.47 28.02,0.38 L30.1,0.31 L30.1,-0.42 Q30.1,-1.96 29.44,-2.55 Q28.77,-3.15 27.56,-3.15 Q26.6,-3.15 25.73,-2.86 Q24.86,-2.57 24.11,-2.21 L23.49,-3.72 Q24.29,-4.16 25.39,-4.46 Q26.49,-4.77 27.68,-4.77 ZM28.27,1.77 Q25.99,1.87 25.1,2.51 Q24.22,3.15 24.22,4.32 Q24.22,5.34 24.85,5.83 Q25.48,6.31 26.47,6.31 Q28.02,6.31 29.05,5.45 Q30.08,4.59 30.08,2.8 L30.08,1.71 L28.27,1.77 Z" fill="#000000" fill-rule="evenodd" />
		</g>
		<path d="M464.7,99.13 C464.55,99.14 464.39,99.19 464.25,99.28 C463.88,99.5 463.67,99.93 463.75,100.36 L464.54,104.79 L461.29,108.47 L457.6,111.91 C457.42,112.07 457.31,112.29 457.28,112.52 L456.66,116.59 C456.61,116.92 456.71,117.25 456.94,117.48 C457.71,118.27 458.82,119.47 460.32,119.66 C460.47,119.68 460.62,119.68 460.76,119.68 C462.04,119.68 463.43,119.01 464.51,118.51 C464.89,118.33 465.12,117.95 465.11,117.54 L465.06,115.09 L468.87,111.67 C468.99,111.56 469.09,111.42 469.15,111.27 L470.95,106.62 C471.05,106.35 471.04,106.04 470.91,105.78 L469.38,102.64 C469.31,102.5 469.21,102.38 469.09,102.28 L465.44,99.36 C465.23,99.19 464.96,99.11 464.7,99.13 Z" fill-rule="evenodd" style="fill:#1CC601;" />
		<path d="M446.16,84.64 C445.91,84.66 445.7,84.77 445.53,84.93 L445.52,84.94 C445.52,84.94 445.51,84.94 445.51,84.95 L443.15,87.2 C443.04,87.3 442.96,87.42 442.9,87.56 C442.48,88.63 442.3,88.86 441.94,88.91 L441.94,88.91 L441.92,88.91 C441.87,88.91 441.82,88.92 441.75,88.92 C440.91,88.92 439.55,88.44 437.88,87.83 C437.37,87.64 436.79,87.88 436.56,88.38 L434.59,92.79 C434.47,93.05 434.47,93.35 434.58,93.62 C434.69,93.89 434.91,94.1 435.18,94.2 L438.17,95.32 C438.37,96.49 438.67,97.94 439.32,98.65 C439.48,98.82 439.69,98.99 439.95,99.1 C440.17,99.19 440.39,99.22 440.6,99.22 C440.74,99.22 440.87,99.21 440.99,99.18 C441.56,99.06 442.16,98.65 442.71,98.18 C443.05,99.24 443.4,100.34 443.64,101.26 C444,102.66 444.22,103.84 444.44,105.06 C444.47,105.19 444.52,105.32 444.59,105.44 L447.76,110.35 C447.98,110.69 448.37,110.87 448.76,110.82 C449.16,110.78 449.49,110.51 449.63,110.13 L452.1,103.14 C452.15,103.02 452.17,102.88 452.16,102.75 L451.95,97.67 C451.94,97.44 451.86,97.23 451.72,97.05 L449.82,94.72 L448.21,91.08 L447.28,85.52 C447.19,84.98 446.71,84.6 446.16,84.64 Z" fill-rule="evenodd" style="fill:#1CC601;" />
		<path d="M413.62,-19.96 C413.47,-19.97 413.31,-19.94 413.16,-19.88 L406.95,-17.18 C406.78,-17.11 406.64,-16.99 406.53,-16.85 L400.39,-8.59 C400.17,-8.3 400.12,-7.92 400.25,-7.58 L404.16,2.47 C404.22,2.64 404.32,2.78 404.46,2.9 L415.1,11.85 L415.2,11.92 L419.68,14.89 L420.5,18.85 C420.54,19.06 420.64,19.25 420.8,19.4 L422.62,21.14 L422.7,25.15 L421.31,27.49 C421.15,27.76 421.12,28.1 421.23,28.4 C421.35,28.7 421.59,28.93 421.9,29.02 L421.99,29.05 L421.99,29.05 C423.71,29.59 425.38,30.12 426.99,30.8 C428.64,31.5 430.26,32.38 431.92,33.29 C432,33.33 432.09,33.37 432.17,33.39 L435.48,34.2 L435.87,38.22 L431.25,38.21 C431,38.21 430.75,38.3 430.56,38.47 L427.2,41.42 C426.97,41.61 426.84,41.89 426.84,42.19 L426.74,49.48 C426.74,49.66 426.78,49.84 426.87,50 L429.28,54.38 L429.57,60.1 C429.59,60.48 429.82,60.83 430.17,60.99 L436.98,64.21 L438.58,68.28 L439.94,71.74 L440.12,72.2 L441.26,75.11 C441.38,75.42 441.65,75.65 441.97,75.74 L454.77,79.05 L457.5,83.33 L457.54,83.39 L461.86,89.22 C462.15,89.61 462.67,89.75 463.12,89.55 L472.03,85.7 L480.28,87.82 L475.58,101.63 C475.54,101.75 475.52,101.86 475.53,101.98 L475.65,114.22 L469.37,124.29 C469.16,124.64 469.16,125.07 469.38,125.41 C469.6,125.75 469.99,125.94 470.39,125.89 L488.95,123.65 C489.4,123.6 489.77,123.26 489.85,122.81 L492.71,107.84 L496.59,95.47 C496.64,95.32 496.65,95.16 496.63,95.01 L494.07,77.64 C494.03,77.37 493.89,77.13 493.68,76.97 L484.52,69.75 C484.33,69.59 484.09,69.51 483.84,69.52 L472.34,69.91 C472.02,69.92 471.73,70.07 471.54,70.32 L465.49,78.23 L457.26,73 L454.11,67.55 C454.03,67.4 453.9,67.27 453.76,67.18 L449.79,64.72 L447.53,59.95 L447.48,59.85 L443.21,52.89 L442.59,45.35 L443.66,43.15 C443.68,43.1 443.7,43.04 443.72,42.99 L444.57,40.12 L448.7,38.08 C448.97,37.94 449.17,37.69 449.25,37.39 C449.32,37.09 449.26,36.77 449.08,36.52 L446.58,33.11 L445.64,29.61 C445.5,29.1 445.02,28.78 444.5,28.84 L439.99,29.4 L436.11,27.37 L433.36,24.57 L433.68,20.02 L437.64,15.69 C437.93,15.37 438,14.9 437.8,14.51 L433.83,6.54 C433.74,6.36 433.6,6.21 433.43,6.1 L424.01,0.52 L421.88,-4.53 L423.15,-10.15 C423.16,-10.2 423.17,-10.26 423.17,-10.31 L423.67,-18.47 C423.69,-18.75 423.59,-19.03 423.4,-19.23 C423.22,-19.44 422.95,-19.57 422.67,-19.58 L413.62,-19.96 Z" fill-rule="evenodd" style="fill:#1CC601;" />
		<path d="M453.07,10.3 C452.76,10.28 452.45,10.42 452.23,10.66 L447.79,15.85 C447.46,16.23 447.45,16.8 447.78,17.2 L453.83,24.53 L453.83,24.53 C454.72,26.44 455.57,28.3 456.25,31.09 C456.96,33.97 457.48,37.85 458.01,41.82 C458.01,41.82 458.01,41.83 458.01,41.83 L459.02,48.64 C459.04,48.82 459.12,48.99 459.23,49.13 L463.44,54.53 C463.68,54.83 464.06,54.98 464.44,54.92 L475.05,53.17 C475.62,53.07 476.01,52.54 475.92,51.97 C475.32,48.18 474.73,44.47 474.56,41.32 C474.39,38.25 474.62,35.71 474.86,33.12 L478.32,23.67 C478.41,23.42 478.41,23.16 478.31,22.92 L475.45,15.66 C475.33,15.35 475.06,15.12 474.74,15.03 L467.86,13.25 C467.77,13.23 467.68,13.22 467.59,13.22 L461.65,13.31 L453.38,10.36 C453.28,10.32 453.18,10.3 453.07,10.3 Z" fill-rule="evenodd" style="fill:#1CC601;" />
		<path d="M416.66,-114.91 C416.71,-114.91 416.75,-114.9 416.8,-114.89 C417.18,-114.82 417.49,-114.54 417.6,-114.17 L422.54,-97.74 C422.64,-97.42 422.57,-97.08 422.37,-96.81 L415.46,-87.65 L422.43,-76.75 L431.34,-85.24 C431.56,-85.45 431.86,-85.55 432.16,-85.52 L448.51,-83.96 C448.81,-83.94 449.08,-83.78 449.26,-83.53 L459.39,-69.48 C459.6,-69.2 459.65,-68.82 459.52,-68.49 L452.73,-51.16 L453.95,-39.16 C453.98,-38.88 453.89,-38.59 453.71,-38.38 L447.18,-30.73 C446.98,-30.5 446.69,-30.37 446.39,-30.37 C446.08,-30.36 445.79,-30.49 445.59,-30.72 L432.79,-45.42 L421.97,-49.38 L421.96,-49.38 L407.43,-54.22 L396.24,-55.73 C396.03,-55.76 395.84,-55.85 395.69,-55.98 L388.47,-62.33 L382.25,-61.4 C381.97,-61.36 381.68,-61.43 381.46,-61.61 L373.76,-67.57 L369.94,-62.7 C369.83,-62.56 369.69,-62.45 369.53,-62.38 L364.11,-60.05 L367.78,-53.86 L376.01,-44.36 C376.16,-44.18 376.25,-43.96 376.26,-43.72 L376.85,-32.16 L376.85,-32.11 L376.88,-11.05 C376.88,-10.88 376.84,-10.71 376.75,-10.55 L367.47,6.76 L369.2,39.88 L377.51,57.11 L390.11,62.61 C390.37,62.72 390.58,62.93 390.67,63.2 L395.08,75.02 L408.63,88.76 C408.92,89.05 409.01,89.49 408.86,89.88 C408.7,90.26 408.34,90.52 407.92,90.54 L396.14,90.98 C395.82,91 395.52,90.87 395.31,90.63 L387.39,81.72 L385.67,95.04 C385.61,95.51 385.25,95.87 384.79,95.95 L375.07,97.48 L379.06,104.53 C379.19,104.76 379.23,105.04 379.16,105.3 L376.19,116.77 L376.99,124.19 C377.03,124.5 376.92,124.81 376.7,125.04 C376.49,125.26 376.18,125.38 375.87,125.35 L371.19,124.99 L379.59,140.73 L386.06,152.87 C386.19,153.11 386.22,153.39 386.15,153.64 L381.51,170.34 C381.45,170.57 381.32,170.76 381.13,170.9 L369.49,179.62 C369.27,179.79 368.98,179.86 368.7,179.82 C368.42,179.77 368.17,179.62 368,179.38 L360.25,168.21 C360.1,168 360.04,167.73 360.08,167.47 L362.23,152.36 L361.48,135.19 L351.93,129.17 L336.95,128.03 L321.7,136.87 L312.28,155.27 C312.2,155.42 312.09,155.55 311.95,155.65 L290.58,170.95 L278.89,183.87 C278.63,184.16 278.24,184.28 277.86,184.19 L263.33,180.51 L238.64,185.32 L219.58,200.78 C219.34,200.98 219.01,201.06 218.71,201 C218.4,200.93 218.13,200.73 217.99,200.45 L207.71,180.38 C207.62,180.21 207.59,180.02 207.6,179.83 C207.42,179.93 207.21,179.97 206.99,179.95 C206.41,179.88 206,179.36 206.06,178.79 C206.13,178.21 206.65,177.8 207.23,177.87 C207.67,177.92 208.01,178.23 208.12,178.64 L218.39,158.85 L214.16,135.77 C214.14,135.64 214.14,135.51 214.16,135.38 L218.32,113.83 L215.64,88.94 L200.11,83.66 C199.94,83.6 199.79,83.5 199.68,83.38 L188.4,71.17 L168.17,72.7 C167.93,72.71 167.7,72.65 167.51,72.53 L157.52,65.92 L153.75,78.1 L147.4,110.74 C147.35,111.03 147.17,111.28 146.91,111.44 C146.65,111.59 146.35,111.63 146.06,111.54 L125.42,105.02 L110.37,110.8 L102.2,132.32 L102.09,144.62 C102.09,144.94 101.94,145.23 101.7,145.43 L93.23,152.29 L86.67,162.91 C86.54,163.12 86.34,163.28 86.1,163.36 L73.39,167.51 L66.81,180.97 C66.74,181.13 66.63,181.26 66.49,181.36 L51.67,192.18 C51.46,192.34 51.19,192.41 50.92,192.37 L38.92,190.81 C38.59,190.77 38.29,190.56 38.13,190.26 C37.97,189.96 37.97,189.6 38.13,189.3 L46.65,172.58 L50.45,163.71 L48.67,152.49 L40.42,154.96 L33.24,163.58 C32.99,163.88 32.6,164.02 32.22,163.94 L21.06,161.62 C20.51,161.5 20.15,160.97 20.24,160.42 L23.03,143.81 C23.05,143.65 23.12,143.5 23.21,143.37 L31.6,131.8 L29.05,127.12 C28.92,126.87 28.89,126.58 28.97,126.31 L30.77,120.47 C30.89,120.07 31.25,119.77 31.67,119.74 L45.67,118.48 L54.1,110.83 L59.63,103.15 C59.87,102.8 60.3,102.64 60.71,102.74 C61.12,102.83 61.44,103.16 61.51,103.58 L63.88,116.99 L64.59,116.91 L67.16,116.64 L75.93,115.71 L75.97,115.71 L88.57,114.76 L94.67,107.43 L99.94,94.17 C100.15,93.64 100.74,93.38 101.27,93.57 L117.21,99.47 L130.7,95.65 L134.74,84.95 L137.43,67.67 C137.46,67.5 137.52,67.34 137.62,67.2 L148.14,52.95 L145.45,20.36 C145.41,19.85 145.74,19.39 146.23,19.26 L159.61,15.74 C159.71,15.71 159.82,15.7 159.92,15.7 L185.02,16.82 L205.25,4.97 C205.32,4.93 205.4,4.89 205.48,4.87 L205.51,4.86 L205.51,4.86 L205.51,4.86 C205.51,4.86 205.51,4.86 205.52,4.86 C205.52,4.86 205.52,4.86 205.52,4.86 L222.47,-0.19 L232.61,-24 C232.66,-24.11 232.73,-24.22 232.82,-24.32 L247.37,-39.29 L247.99,-60.02 C247.99,-60.09 248,-60.16 248.02,-60.23 L254.06,-85.78 C254.15,-86.14 254.41,-86.42 254.76,-86.54 L283.78,-95.93 L305.13,-107.31 C305.41,-107.46 305.75,-107.48 306.04,-107.35 L330.38,-96.75 C330.44,-96.73 330.49,-96.69 330.55,-96.66 L342.75,-88.31 C342.91,-88.2 343.04,-88.04 343.12,-87.85 L349.64,-72.46 L353.96,-70.26 L350.13,-74.72 C349.91,-74.97 349.83,-75.32 349.91,-75.65 L352.09,-84.55 C352.17,-84.87 352.4,-85.14 352.72,-85.27 C353.03,-85.39 353.38,-85.36 353.67,-85.19 L360.74,-80.74 C360.92,-80.63 361.05,-80.47 361.14,-80.27 L361.75,-78.88 L360.7,-83.84 L355.41,-94.93 C355.19,-95.39 355.33,-95.93 355.74,-96.23 L370.65,-107.07 C370.92,-107.27 371.26,-107.33 371.57,-107.23 L381.54,-104.18 L392.17,-103.9 L407.93,-105.01 L415.79,-114.53 C415.97,-114.76 416.24,-114.89 416.52,-114.91 C416.56,-114.92 416.61,-114.92 416.66,-114.91 ZM133.34,147.18 C133.49,147.19 133.64,147.22 133.78,147.29 L143.06,151.91 C143.32,152.04 143.52,152.28 143.6,152.57 C143.68,152.86 143.63,153.17 143.47,153.42 L133.19,169.19 C133.16,169.24 133.13,169.28 133.1,169.32 L129.84,172.96 C129.81,173 129.78,173.03 129.74,173.06 L123.91,178.05 L120.9,185.54 L122.29,189.94 C122.37,190.19 122.35,190.46 122.24,190.7 L119.73,196.08 L117.93,205.57 L117.86,211.92 L122.53,203.58 C122.57,203.51 122.62,203.44 122.68,203.38 L127.69,197.94 L129.6,186.41 C129.6,186.38 129.61,186.35 129.62,186.33 L130.82,181.54 C130.93,181.09 131.32,180.77 131.78,180.74 L136.87,180.5 C137.28,180.48 137.66,180.7 137.85,181.07 L140.21,185.6 L143.87,188.08 C144.28,188.36 144.44,188.88 144.25,189.34 L141.07,197.3 C141.07,197.31 141.06,197.32 141.06,197.33 L137.87,204.54 L138.11,211.32 C138.11,211.48 138.08,211.63 138.02,211.78 L136.39,215.45 L140.31,222.93 C140.43,223.16 140.46,223.42 140.4,223.66 L137.42,236.22 C137.38,236.39 137.3,236.55 137.18,236.68 L134.16,240.01 L136.84,246.29 C136.87,246.36 136.89,246.43 136.9,246.51 L138.26,253.68 C138.29,253.8 138.29,253.91 138.27,254.03 L137.29,260.77 C137.25,261.05 137.1,261.3 136.87,261.47 C136.63,261.64 136.35,261.7 136.07,261.65 L130.95,260.72 C129.7,261.07 128.55,261.45 127.06,262.88 C125.39,264.49 123.32,267.41 121.17,270.46 C120.98,270.72 120.69,270.89 120.37,270.9 C113.97,271.23 109.98,271.69 109.81,273.28 C109.72,274.19 110.58,275.75 111.81,277.83 C112.86,279.6 114.41,282.07 113.97,283.87 C113.09,287.44 105.22,286.9 99.71,286.7 C99.38,286.69 99.08,286.53 98.9,286.26 L88.11,271.32 C87.8,270.9 87.85,270.32 88.23,269.95 L95.95,262.46 L103.59,248.25 L93.76,252.01 C93.75,252.01 93.73,252.02 93.71,252.03 L77.1,257.32 C76.97,257.37 76.83,257.38 76.7,257.37 L63.88,256.37 C63.64,256.35 63.42,256.25 63.25,256.1 L53.6,247.34 C53.18,246.95 53.14,246.31 53.52,245.88 L63.63,234.15 C63.79,233.96 64.01,233.84 64.26,233.8 L89.78,229.95 C91.3,226.99 92.79,224.05 94.09,220.9 C95.45,217.61 96.6,214.09 97.77,210.51 L100.07,189.85 C100.08,189.77 100.1,189.69 100.13,189.61 L104.5,177.78 C104.52,177.74 104.54,177.7 104.56,177.67 L112.53,162.06 C112.58,161.97 112.64,161.89 112.71,161.81 L121.94,152.12 C122.03,152.02 122.15,151.93 122.28,151.88 L132.9,147.27 C133.04,147.21 133.19,147.18 133.34,147.18 Z" fill-rule="evenodd" style="fill:#1CC601;" />
		<g transform="matrix(1.7600153684616089, 0, 0, 1.7600153684616089, 251.3582305908203, 54.382659912109375)">
			<path d="M-25.13,-0.67 Q-25.13,2.24 -26.21,4.2 Q-27.28,6.15 -29.29,7.15 Q-31.3,8.14 -34.16,8.14 L-38.97,8.14 L-38.97,-9.14 L-33.65,-9.14 Q-31.03,-9.14 -29.12,-8.17 Q-27.21,-7.2 -26.17,-5.32 Q-25.13,-3.45 -25.13,-0.67 ZM-27.43,-0.6 Q-27.43,-2.9 -28.19,-4.37 Q-28.95,-5.84 -30.42,-6.56 Q-31.88,-7.27 -33.96,-7.27 L-36.79,-7.27 L-36.79,6.28 L-34.45,6.28 Q-30.94,6.28 -29.18,4.55 Q-27.43,2.82 -27.43,-0.6 ZM-15.55,-5.07 Q-15.18,-5.07 -14.76,-5.03 Q-14.34,-5 -14.03,-4.93 L-14.29,-2.97 Q-14.6,-3.04 -14.98,-3.09 Q-15.35,-3.14 -15.69,-3.14 Q-16.44,-3.14 -17.12,-2.82 Q-17.8,-2.51 -18.33,-1.94 Q-18.86,-1.37 -19.16,-0.57 Q-19.47,0.23 -19.47,1.22 L-19.47,8.14 L-21.6,8.14 L-21.6,-4.83 L-19.86,-4.83 L-19.61,-2.46 L-19.52,-2.46 Q-19.11,-3.19 -18.53,-3.78 Q-17.94,-4.37 -17.19,-4.72 Q-16.44,-5.07 -15.55,-5.07 ZM-7.17,-5.05 Q-4.81,-5.05 -3.67,-4.01 Q-2.53,-2.97 -2.53,-0.69 L-2.53,8.14 L-4.08,8.14 L-4.49,6.3 L-4.59,6.3 Q-5.14,7 -5.74,7.47 Q-6.33,7.94 -7.09,8.16 Q-7.85,8.38 -8.94,8.38 Q-10.1,8.38 -11.04,7.97 Q-11.97,7.56 -12.5,6.7 Q-13.03,5.84 -13.03,4.53 Q-13.03,2.6 -11.51,1.55 Q-9.98,0.49 -6.81,0.39 L-4.61,0.32 L-4.61,-0.45 Q-4.61,-2.08 -5.31,-2.7 Q-6.02,-3.33 -7.3,-3.33 Q-8.31,-3.33 -9.24,-3.03 Q-10.15,-2.73 -10.95,-2.34 L-11.61,-3.94 Q-10.76,-4.4 -9.6,-4.72 Q-8.43,-5.05 -7.17,-5.05 ZM-6.55,1.87 Q-8.96,1.97 -9.9,2.65 Q-10.83,3.32 -10.83,4.56 Q-10.83,5.64 -10.17,6.15 Q-9.5,6.66 -8.46,6.66 Q-6.81,6.66 -5.73,5.76 Q-4.63,4.85 -4.63,2.96 L-4.63,1.8 L-6.55,1.87 ZM4.34,8.14 L-0.57,-4.83 L1.7,-4.83 L4.46,2.82 Q4.66,3.35 4.87,4 Q5.09,4.65 5.26,5.25 Q5.43,5.84 5.5,6.25 L5.6,6.25 Q5.7,5.84 5.87,5.24 Q6.06,4.63 6.29,3.98 Q6.52,3.32 6.69,2.82 L9.45,-4.83 L11.72,-4.83 L6.78,8.14 L4.34,8.14 ZM25.05,1.63 Q25.05,3.25 24.63,4.5 Q24.21,5.74 23.41,6.61 Q22.63,7.48 21.5,7.93 Q20.38,8.38 19,8.38 Q17.72,8.38 16.63,7.93 Q15.54,7.48 14.74,6.61 Q13.95,5.74 13.5,4.5 Q13.05,3.25 13.05,1.63 Q13.05,-0.52 13.77,-2.01 Q14.5,-3.5 15.85,-4.28 Q17.21,-5.07 19.07,-5.07 Q20.84,-5.07 22.18,-4.28 Q23.53,-3.5 24.29,-2.01 Q25.05,-0.52 25.05,1.63 ZM15.25,1.63 Q15.25,3.15 15.65,4.28 Q16.05,5.4 16.89,6.01 Q17.74,6.61 19.05,6.61 Q20.35,6.61 21.2,6.01 Q22.05,5.4 22.45,4.28 Q22.85,3.15 22.85,1.63 Q22.85,0.08 22.43,-1.01 Q22.03,-2.1 21.19,-2.69 Q20.35,-3.28 19.03,-3.28 Q17.04,-3.28 16.14,-1.98 Q15.25,-0.67 15.25,1.63 ZM34.66,-5.07 Q36.98,-5.07 38.16,-3.94 Q39.35,-2.82 39.35,-0.31 L39.35,8.14 L37.24,8.14 L37.24,-0.16 Q37.24,-1.73 36.54,-2.51 Q35.84,-3.28 34.34,-3.28 Q32.19,-3.28 31.37,-2.07 Q30.54,-0.86 30.54,1.41 L30.54,8.14 L28.41,8.14 L28.41,-4.83 L30.13,-4.83 L30.44,-3.06 L30.57,-3.06 Q31,-3.74 31.64,-4.19 Q32.29,-4.64 33.06,-4.85 Q33.83,-5.07 34.66,-5.07 Z" fill="#000000" fill-rule="evenodd" />
		</g>
		<path d="M134.14,402.78 C134.08,402.78 134.02,402.79 133.96,402.81 L128.07,404.2 C127.87,404.25 127.68,404.36 127.54,404.52 L123.82,408.63 C123.52,408.96 123.46,409.43 123.67,409.82 L125.5,413.28 C125.61,413.48 125.78,413.64 125.98,413.74 L128.28,414.84 C128.47,414.93 128.69,414.96 128.9,414.92 L131.7,414.45 L136.39,415.66 C136.79,415.76 137.22,415.61 137.48,415.28 L140.19,411.78 C140.5,411.37 140.47,410.79 140.11,410.41 L136.71,406.86 L135.15,403.4 C134.97,402.99 134.57,402.76 134.14,402.78 Z" fill-rule="evenodd" style="fill:#FF8400;" />
		<path d="M5.86,404.96 C5.75,404.96 5.63,404.98 5.52,405.01 L-1.96,407.48 C-2.1,407.53 -2.23,407.6 -2.34,407.7 L-5.19,410.3 C-5.47,410.55 -5.59,410.93 -5.51,411.29 L-4.61,415.58 C-4.53,415.96 -4.25,416.26 -3.89,416.37 C-3.52,416.48 -3.13,416.38 -2.85,416.12 L0.56,412.8 L3.15,410.75 C3.21,410.7 3.25,410.66 3.3,410.61 L6.65,406.69 C6.95,406.33 6.98,405.82 6.72,405.43 C6.52,405.13 6.2,404.96 5.86,404.96 Z" fill-rule="evenodd" style="fill:#FF8400;" />
		<path d="M32.9,407.58 C33.05,407.58 33.21,407.61 33.35,407.67 C33.64,407.79 33.86,408.05 33.94,408.35 L35.35,413.42 L45.03,410.81 C45.37,410.71 45.74,410.8 46,411.03 C46.26,411.27 46.39,411.62 46.34,411.96 L45.42,418.53 C45.37,418.83 45.2,419.1 44.95,419.26 C42.5,420.85 40.2,422.35 38.36,424.32 C36.52,426.3 35.12,428.79 33.64,431.41 L33.63,431.44 C33.42,431.81 33.01,432.02 32.59,431.97 C32.17,431.92 31.82,431.62 31.7,431.21 L28.28,418.81 L23.91,425.18 C23.83,425.3 23.73,425.4 23.6,425.48 L14.41,431.22 C14.1,431.42 13.71,431.43 13.38,431.27 C13.05,431.1 12.84,430.78 12.81,430.41 L12.15,421.42 C12.13,421.07 12.28,420.73 12.57,420.51 L22.87,412.7 C22.92,412.67 22.97,412.64 23.02,412.61 L32.45,407.7 C32.59,407.63 32.75,407.59 32.9,407.58 Z" fill-rule="evenodd" style="fill:#FF8400;" />
		<path d="M-1.63,269.29 C-1.66,269.29 -1.68,269.3 -1.71,269.3 L-1.71,269.3 L-28.81,272.84 C-29.09,272.88 -29.34,273.06 -29.46,273.31 L-42.72,301.8 C-42.85,302.07 -42.82,302.39 -42.65,302.63 L-31.99,317.76 L-28.56,329.55 C-28.5,329.76 -28.37,329.93 -28.18,330.04 L-22.23,333.5 L-19.97,338.37 L-28.78,348.65 C-28.94,348.84 -29,349.08 -28.97,349.32 L-26.46,365.78 C-26.42,366.06 -26.23,366.3 -25.97,366.42 L-14.76,371.18 C-14.7,371.2 -14.63,371.22 -14.56,371.23 L-0.7,373.29 C-0.67,373.3 -0.64,373.3 -0.61,373.3 L11.62,373.7 C18.05,377.63 24.59,381.64 30.62,383.42 C36.76,385.23 42.33,384.73 47.73,384.25 C47.92,384.24 48.09,384.16 48.22,384.04 L69.77,364.24 C69.8,364.21 69.83,364.18 69.86,364.15 L78.74,353 C78.85,352.87 78.91,352.71 78.92,352.54 L80.1,332.78 C80.1,332.71 80.1,332.65 80.09,332.58 L75.12,306.53 C75.05,306.13 74.7,305.85 74.3,305.86 C73.9,305.86 73.56,306.15 73.49,306.55 L67.28,344.75 L46.86,358.95 L32.87,360.88 C32.8,360.89 32.74,360.91 32.68,360.93 L15.4,367.72 L17.95,359.74 C18.01,359.55 18,359.34 17.92,359.16 L13.87,349.7 L31.9,342.72 C32.13,342.63 32.31,342.44 32.39,342.2 L34.04,336.88 C34.14,336.53 34.01,336.16 33.71,335.95 L23.87,329.21 L26.9,319.34 C27,318.99 26.86,318.61 26.55,318.41 L20.86,314.74 C20.65,314.6 20.39,314.57 20.15,314.65 L11.2,317.64 L2.92,312.44 L-10.94,295.26 L-4.59,283.22 L24.64,272.74 C25.01,272.61 25.24,272.24 25.18,271.85 C25.13,271.46 24.81,271.16 24.42,271.14 L-1.54,269.29 C-1.57,269.29 -1.6,269.29 -1.63,269.29 Z" fill-rule="evenodd" style="fill:#FF8400;" />
		<path d="M408.51,157.27 C408.59,157.27 408.68,157.29 408.75,157.31 C409.07,157.4 409.32,157.63 409.44,157.93 L416.48,175.45 L428.69,175.27 C429.1,175.26 429.48,175.49 429.65,175.86 L441.9,201.2 C441.99,201.38 442.02,201.57 442,201.77 L438.26,237.62 L438.64,265.78 C438.64,265.85 438.64,265.93 438.62,266 L431.25,302.17 C431.22,302.3 431.16,302.43 431.09,302.54 L406.3,339.63 C406.14,339.86 405.91,340.02 405.64,340.07 L376.34,346.04 L359.85,362.69 C359.79,362.75 359.72,362.8 359.65,362.85 L322.84,385.19 L303.06,405.4 L284.91,429.77 C284.7,430.05 284.36,430.2 284.02,430.19 L257.83,428.94 L245.25,452.33 C245.13,452.55 244.93,452.72 244.7,452.81 L224.33,460.77 C224.2,460.82 224.07,460.85 223.94,460.85 L200.91,460.86 L183.04,469.24 C182.76,469.37 182.44,469.37 182.16,469.25 L162.46,460.26 L144.8,459.62 L110.8,467.12 C110.6,467.16 110.4,467.15 110.21,467.08 L84.95,457.82 C84.75,457.75 84.57,457.61 84.44,457.43 L60.89,422.5 C60.66,422.17 60.65,421.74 60.85,421.39 C61.05,421.05 61.43,420.85 61.83,420.87 L89.33,422.65 C89.56,422.67 89.78,422.76 89.96,422.92 L114.25,444.77 L141.21,445.16 L170.48,444.61 L173.09,419.78 L173.98,398.23 L163.07,390.72 C162.89,390.59 162.76,390.42 162.68,390.21 L153.86,365.7 C153.73,365.33 153.81,364.92 154.07,364.64 C154.33,364.35 154.73,364.23 155.11,364.33 L165.24,366.93 C165.42,366.98 165.59,367.07 165.72,367.21 L173.27,374.78 L184.92,381.58 C185.11,381.69 185.26,381.85 185.35,382.05 L191.43,395.35 C191.45,395.39 191.47,395.44 191.48,395.48 L197.92,416.84 L209.58,416.56 L217.24,397.62 C217.29,397.51 217.35,397.41 217.43,397.32 L231.87,381.16 L238.2,361.31 C238.28,361.07 238.45,360.85 238.68,360.72 L260.96,347.96 L242.1,332.47 C241.94,332.34 241.83,332.17 241.77,331.98 L234.74,309.76 L219.15,280.19 C219.09,280.07 219.05,279.93 219.04,279.79 L216.57,249.48 C216.54,249.06 216.76,248.66 217.13,248.47 L254.58,228.97 C254.93,228.79 255.36,228.82 255.68,229.05 L279.24,246.04 L303.9,227.73 C304.06,227.61 304.26,227.54 304.46,227.53 L328.59,226.03 C328.68,226.02 328.77,226.03 328.86,226.05 L351.2,230.54 L358.44,206.35 C358.52,206.07 358.72,205.84 358.98,205.71 L379.18,195.62 L385.71,174.04 C385.78,173.82 385.91,173.63 386.09,173.5 L407.85,157.47 C408.04,157.33 408.28,157.26 408.51,157.27 Z" fill-rule="evenodd" style="fill:#FF8400;" />
		<g transform="matrix(1.4856932163238525, 0, 0, 1.4856932163238525, 307.0513000488281, 300.618896484375)">
			<path d="M-36.43,13.41 L-40.02,13.41 L-40.02,-11.9 L-48.9,-11.9 L-48.9,-15.05 L-27.58,-15.05 L-27.58,-11.9 L-36.43,-11.9 L-36.43,13.41 ZM-18.85,-8.31 Q-14.95,-8.31 -13.08,-6.59 Q-11.2,-4.88 -11.2,-1.14 L-11.2,13.41 L-13.75,13.41 L-14.43,10.39 L-14.59,10.39 Q-15.5,11.53 -16.48,12.31 Q-17.46,13.09 -18.71,13.45 Q-19.97,13.81 -21.76,13.81 Q-23.67,13.81 -25.21,13.14 Q-26.74,12.46 -27.62,11.05 Q-28.5,9.63 -28.5,7.48 Q-28.5,4.28 -25.99,2.55 Q-23.47,0.82 -18.25,0.65 L-14.63,0.54 L-14.63,-0.74 Q-14.63,-3.41 -15.78,-4.44 Q-16.94,-5.48 -19.05,-5.48 Q-20.73,-5.48 -22.24,-4.98 Q-23.75,-4.48 -25.07,-3.85 L-26.15,-6.48 Q-24.75,-7.24 -22.84,-7.77 Q-20.92,-8.31 -18.85,-8.31 ZM-17.82,3.09 Q-21.8,3.25 -23.33,4.37 Q-24.87,5.48 -24.87,7.51 Q-24.87,9.3 -23.78,10.14 Q-22.68,10.98 -20.96,10.98 Q-18.25,10.98 -16.46,9.49 Q-14.66,7.99 -14.66,4.88 L-14.66,2.97 L-17.82,3.09 ZM5.7,-8.35 Q9.52,-8.35 11.48,-6.49 Q13.44,-4.64 13.44,-0.5 L13.44,13.41 L9.96,13.41 L9.96,-0.26 Q9.96,-2.85 8.8,-4.12 Q7.66,-5.4 5.18,-5.4 Q1.63,-5.4 0.28,-3.4 Q-1.07,-1.42 -1.07,2.33 L-1.07,13.41 L-4.59,13.41 L-4.59,-7.95 L-1.75,-7.95 L-1.24,-5.04 L-1.03,-5.04 Q-0.32,-6.16 0.74,-6.9 Q1.8,-7.64 3.07,-7.99 Q4.35,-8.35 5.7,-8.35 ZM23.56,-7.95 L23.56,13.41 L20.04,13.41 L20.04,-7.95 L23.56,-7.95 ZM21.84,-15.96 Q22.63,-15.96 23.25,-15.42 Q23.87,-14.88 23.87,-13.73 Q23.87,-12.62 23.25,-12.05 Q22.63,-11.5 21.84,-11.5 Q20.96,-11.5 20.36,-12.05 Q19.76,-12.62 19.76,-13.73 Q19.76,-14.88 20.36,-15.42 Q20.96,-15.96 21.84,-15.96 ZM38.42,-8.31 Q42.32,-8.31 44.19,-6.59 Q46.07,-4.88 46.07,-1.14 L46.07,13.41 L43.52,13.41 L42.84,10.39 L42.68,10.39 Q41.77,11.53 40.79,12.31 Q39.81,13.09 38.56,13.45 Q37.3,13.81 35.51,13.81 Q33.6,13.81 32.06,13.14 Q30.53,12.46 29.65,11.05 Q28.77,9.63 28.77,7.48 Q28.77,4.28 31.28,2.55 Q33.8,0.82 39.02,0.65 L42.65,0.54 L42.65,-0.74 Q42.65,-3.41 41.49,-4.44 Q40.33,-5.48 38.22,-5.48 Q36.54,-5.48 35.03,-4.98 Q33.52,-4.48 32.21,-3.85 L31.13,-6.48 Q32.52,-7.24 34.43,-7.77 Q36.35,-8.31 38.42,-8.31 ZM39.45,3.09 Q35.47,3.25 33.94,4.37 Q32.4,5.48 32.4,7.51 Q32.4,9.3 33.49,10.14 Q34.59,10.98 36.31,10.98 Q39.02,10.98 40.81,9.49 Q42.61,7.99 42.61,4.88 L42.61,2.97 L39.45,3.09 Z" fill="#000000" fill-rule="evenodd" />
		</g>
		<g transform="matrix(1, 0, 0, 1, 44.3205451965332, -13.230083465576172)">
			<path d="M-145.73,-2.97 C-146.14,-2.97 -146.69,-2.74 -146.81,-2.09 C-146.88,-1.67 -146.68,-1.31 -146.68,-1.33 C-146.5,-0.95 -145.9,-0.14 -145.38,0.58 C-145.38,2.38 -145.39,4.5 -145.03,5.38 C-144.96,5.54 -144.81,5.86 -144.48,6.07 C-144.35,6.16 -144.2,6.22 -144.03,6.25 C-143.43,6.35 -143,5.98 -142.85,5.85 C-142.2,5.25 -141.43,3.58 -140.84,2.32 C-140.65,1.93 -140.73,1.45 -141.04,1.14 C-142.67,-0.51 -144.48,-2.34 -145.05,-2.73 C-145.07,-2.75 -145.09,-2.76 -145.11,-2.77 C-145.15,-2.8 -145.33,-2.91 -145.56,-2.96 C-145.62,-2.96 -145.67,-2.97 -145.73,-2.97 Z" fill-rule="evenodd" style="fill:#9D03A4;" />
			<path d="M-144.85,12.75 L-151.32,12.84 C-151.64,12.84 -151.94,12.99 -152.13,13.24 L-156.98,19.41 C-157.2,19.68 -157.26,20.04 -157.16,20.38 C-157.05,20.71 -156.78,20.97 -156.45,21.06 L-151.79,22.39 C-151.53,22.46 -151.26,22.44 -151.03,22.32 L-147.74,20.68 C-147.56,20.59 -147.41,20.44 -147.3,20.26 L-143.9,14.31 C-143.84,14.21 -143.8,14.1 -143.78,13.97 C-143.69,13.47 -143.97,12.98 -144.45,12.81 C-144.57,12.76 -144.7,12.75 -144.82,12.75 L-144.82,12.75 L-144.84,12.75 C-144.84,12.75 -144.84,12.75 -144.85,12.75 Z" fill-rule="evenodd" style="fill:#9D03A4;" />
			<path d="M-106.13,83.61 C-106.04,83.6 -105.96,83.61 -105.87,83.63 L-100.01,85.26 C-99.71,85.34 -99.49,85.61 -99.46,85.92 C-99.43,86.24 -99.6,86.54 -99.89,86.67 L-106.19,89.68 L-109.95,93.54 C-110.16,93.76 -110.48,93.83 -110.76,93.72 L-114.36,92.35 C-114.56,92.27 -114.72,92.12 -114.8,91.92 C-114.87,91.72 -114.87,91.5 -114.77,91.31 L-112.56,86.69 C-112.48,86.54 -112.35,86.41 -112.19,86.33 L-106.39,83.67 C-106.31,83.64 -106.22,83.62 -106.13,83.61 Z" fill-rule="evenodd" style="fill:#9D03A4;" />
			<path d="M-182.18,89.5 C-182.29,89.5 -182.41,89.51 -182.54,89.53 C-182.65,89.55 -182.77,89.59 -182.9,89.65 C-182.93,89.67 -182.97,89.69 -183,89.71 C-183.63,90.08 -183.69,90.74 -183.67,91.1 L-182.62,91.03 L-183.67,91.1 C-183.59,92.17 -182.49,93.95 -181.7,95.28 C-181.61,95.42 -181.5,95.54 -181.36,95.62 C-178.89,97.21 -175.93,99.16 -174.62,99.3 C-174.48,99.32 -174.3,99.32 -174.11,99.28 C-174,99.26 -173.89,99.23 -173.78,99.17 C-173.73,99.15 -173.68,99.12 -173.64,99.09 C-173.02,98.69 -173.03,98.01 -173.06,97.72 L-173.06,97.71 C-173.21,96.53 -174.8,94.17 -176.04,92.27 C-176.14,92.12 -176.27,92 -176.43,91.92 C-178.42,90.86 -180.94,89.5 -182.18,89.5 Z" fill-rule="evenodd" style="fill:#9D03A4;" />
			<path d="M-153.67,92.59 C-154.05,92.57 -154.41,92.81 -154.52,93.18 L-156.93,101.22 L-160.55,106.35 C-160.58,106.38 -160.6,106.42 -160.62,106.45 L-162.65,110.49 C-162.78,110.75 -162.77,111.05 -162.62,111.3 C-162.47,111.54 -162.21,111.69 -161.92,111.7 C-159.78,111.71 -157.49,111.73 -155.71,111.27 C-155.11,111.12 -154.54,110.91 -154.04,110.6 C-152,109.38 -151.51,106.93 -151.08,105 C-151.06,104.9 -151.06,104.79 -151.07,104.69 L-152.9,93.29 C-152.97,92.91 -153.28,92.62 -153.67,92.59 Z" fill-rule="evenodd" style="fill:#9D03A4;" />
			<path d="M241.73,-275.66 C241.62,-275.65 241.51,-275.63 241.4,-275.59 L226.93,-269.87 C226.5,-269.71 226.23,-269.29 226.25,-268.84 L227.26,-242.78 L198.16,-215.17 L204.71,-243.73 C204.8,-244.11 204.66,-244.52 204.36,-244.78 C204.06,-245.03 203.65,-245.11 203.28,-244.96 L181.09,-236.33 L168,-247.94 C167.91,-248.03 167.8,-248.09 167.68,-248.14 L152.54,-253.99 C152.4,-254.04 152.24,-254.07 152.08,-254.05 L136.56,-252.93 C136.17,-252.91 135.82,-252.66 135.66,-252.29 C135.5,-251.93 135.56,-251.51 135.8,-251.2 L144.95,-239.69 L144.95,-239.68 L144.96,-239.66 L150.78,-231.5 C150.94,-231.28 151.17,-231.13 151.43,-231.07 L158.79,-229.52 L163.71,-221.27 L162.03,-209.01 L162.03,-209 L158.59,-203.24 C158.42,-202.95 158.4,-202.6 158.53,-202.29 L160.16,-198.36 C160.2,-198.26 160.26,-198.16 160.34,-198.07 L164.52,-193.28 L162.82,-177.64 L156.76,-165.38 C156.6,-165.05 156.61,-164.67 156.8,-164.36 L162.58,-154.65 L159.98,-143.09 L159.98,-143.09 L159.98,-143.07 L159.97,-143.06 L159.97,-143.04 L159.97,-143.03 L159.97,-143.03 L159.97,-143.03 L156.05,-132.38 L147.55,-131.72 L147.54,-131.72 L147.54,-131.72 L147.54,-131.72 C146.48,-131.86 145.41,-132 144.39,-132 C143.48,-132 142.61,-131.9 141.79,-131.58 L141.79,-131.58 C140.06,-130.91 138.61,-129.32 137.17,-127.73 L137.14,-127.7 L132.46,-133.17 C132.21,-133.45 131.84,-133.59 131.47,-133.52 L121.26,-131.79 L110.94,-139.65 C110.78,-139.77 110.6,-139.84 110.4,-139.86 L95.28,-141.44 C94.89,-141.48 94.51,-141.31 94.29,-140.99 L81.88,-123.32 L64.65,-125.72 L64.63,-125.73 L54.33,-126.93 C54.12,-126.95 53.9,-126.92 53.71,-126.82 L45.48,-122.59 C44.97,-122.34 44.76,-121.73 44.99,-121.21 L48.51,-113.25 L46.07,-104.48 L37.98,-107.51 C37.66,-107.63 37.29,-107.58 37,-107.39 L27.89,-101.2 C27.64,-101.03 27.48,-100.77 27.44,-100.47 L25.13,-84.78 L18.71,-83.12 L14.63,-87.96 C14.37,-88.28 13.95,-88.41 13.55,-88.31 C13.15,-88.21 12.85,-87.89 12.77,-87.49 L11.95,-83.46 C11.9,-83.26 11.92,-83.05 12,-82.86 L15.13,-74.79 L7.32,-55.76 L0.9,-69.54 C0.66,-70.05 0.07,-70.29 -0.46,-70.09 L-5.51,-68.16 C-5.97,-67.98 -6.25,-67.5 -6.18,-67.01 L-4.92,-58.21 L-10.51,-58.7 L-12.91,-65.76 C-13.03,-66.1 -13.3,-66.36 -13.65,-66.45 C-14,-66.54 -14.37,-66.45 -14.63,-66.21 L-21.43,-60.18 L-21.43,-60.18 L-21.45,-60.17 L-36,-48.1 L-50.23,-49.72 C-50.6,-49.76 -50.95,-49.61 -51.18,-49.33 L-58.09,-40.84 L-67.84,-39.12 C-68.29,-39.04 -68.63,-38.69 -68.71,-38.25 L-70.39,-28.71 C-70.42,-28.53 -70.41,-28.35 -70.35,-28.18 L-66.4,-16.63 C-66.34,-16.47 -66.25,-16.33 -66.14,-16.21 L-57.01,-7.19 L-53.96,12.42 C-53.92,12.67 -53.8,12.89 -53.62,13.05 L-45.33,20.5 C-45.07,20.73 -44.73,20.82 -44.39,20.75 C-44.06,20.68 -43.78,20.46 -43.64,20.14 L-36.13,3.38 L-25.67,3.64 C-25.16,3.65 -24.71,3.31 -24.6,2.81 L-21.32,-11.79 L-21.32,-11.79 L-21.32,-11.79 L-11.06,-20.19 C-10.74,-20.44 -10.6,-20.85 -10.69,-21.25 L-14.47,-38.22 L-8.61,-29.81 C-8.29,-29.36 -7.68,-29.22 -7.21,-29.49 L-1.36,-32.79 C-1.21,-32.87 -1.08,-33 -0.98,-33.15 L6.64,-45.45 L2.43,-29.39 L2.42,-29.39 L2.42,-29.39 L-12.68,-6.75 C-12.71,-6.71 -12.73,-6.67 -12.75,-6.63 L-12.76,-6.62 C-15.24,-1.6 -17.73,3.41 -19.56,7 C-21.4,10.61 -22.6,12.79 -23.79,14.96 L-31.68,18.27 C-32.15,18.47 -32.42,18.97 -32.31,19.47 L-29.98,30.82 C-29.88,31.28 -29.5,31.62 -29.03,31.67 L-11.99,33.18 L5.57,42.91 C5.71,42.98 5.87,43.03 6.04,43.04 L24.77,44.01 C24.97,44.02 25.17,43.97 25.34,43.88 L44.34,33.3 C44.6,33.16 44.78,32.92 44.86,32.63 C44.93,32.35 44.88,32.05 44.72,31.8 L36.99,19.52 L40.76,-0.61 C40.81,-0.88 40.76,-1.15 40.61,-1.38 L29.79,-18.46 L30.65,-35.35 L41.82,-43.3 L62.19,-46.34 C62.63,-46.41 62.99,-46.74 63.08,-47.17 L66.75,-64.29 L80.34,-76.77 L96.23,-68.88 L99.67,-48.07 L99.67,-48.07 L98.21,-32.71 C98.18,-32.43 98.27,-32.15 98.44,-31.93 L108.13,-19.92 C108.35,-19.65 108.67,-19.51 109.01,-19.52 L125.75,-20.33 C125.8,-20.33 125.85,-20.34 125.9,-20.35 L142.47,-23.48 C142.62,-23.5 142.76,-23.56 142.88,-23.65 L166.62,-40.17 C166.77,-40.27 166.89,-40.42 166.97,-40.58 L180.13,-67.98 C180.27,-68.26 180.28,-68.57 180.16,-68.85 L168.72,-96.57 L168.72,-96.58 L172.83,-120.6 L187.09,-132.7 L204.57,-133.7 C204.74,-133.71 204.9,-133.76 205.04,-133.84 L223.29,-144.32 L223.29,-144.32 L223.3,-144.32 L248.5,-148.56 C248.81,-148.61 249.07,-148.79 249.24,-149.05 L259.82,-166.35 L259.83,-166.36 L259.83,-166.36 L275.97,-176.8 L307.44,-171.87 L322.29,-159.7 L323.9,-137.62 C323.93,-137.28 324.12,-136.96 324.41,-136.79 C324.71,-136.61 325.07,-136.58 325.39,-136.71 L331.94,-139.5 L345.22,-137.58 C345.39,-137.56 345.56,-137.57 345.72,-137.63 L356.69,-141.39 L369.28,-142.02 C369.62,-142.03 369.93,-142.22 370.12,-142.5 C370.31,-142.79 370.35,-143.15 370.22,-143.47 L365.72,-155.22 C365.7,-155.28 365.68,-155.34 365.65,-155.39 L357.84,-168.62 L376.57,-174.1 C377.01,-174.23 377.31,-174.62 377.33,-175.08 C377.35,-175.54 377.08,-175.96 376.65,-176.12 L335.94,-191.86 L354.05,-205.15 L380.36,-207.95 C380.69,-207.98 380.99,-208.17 381.16,-208.46 C381.33,-208.75 381.36,-209.1 381.23,-209.41 L373.93,-227.5 C373.84,-227.74 373.67,-227.93 373.45,-228.05 L343.45,-244.13 C343.04,-244.35 342.55,-244.28 342.21,-243.97 L332.81,-235.21 C332.74,-235.15 332.69,-235.09 332.64,-235.02 L318.29,-213.27 L293.48,-231.24 C293.24,-231.41 292.95,-231.48 292.67,-231.43 L282.04,-229.57 L278.54,-243.17 C278.51,-243.28 278.46,-243.39 278.4,-243.48 L266.71,-261.51 C266.47,-261.89 266.02,-262.08 265.58,-261.97 L247.29,-257.78 L242.83,-274.87 C242.75,-275.16 242.55,-275.41 242.28,-275.55 C242.11,-275.63 241.92,-275.67 241.73,-275.66 Z" fill-rule="evenodd" style="fill:#9D03A4;" />
			<path transform="matrix(0.9122672080993652, -0.4095955789089203, 0.4095955789089203, 0.9122672080993652, -1.2705544233322144, -80.96964263916016)" d="M-199.19,34.89 C-199.08,34.89 -198.96,34.91 -198.84,34.94 C-198.37,35.07 -197.99,35.41 -197.83,35.86 L-190.82,54.81 L-168.28,54.11 L-156.24,42.38 C-155.94,42.09 -155.53,41.94 -155.12,41.96 L-129.13,43.47 C-128.73,43.5 -128.36,43.68 -128.1,43.98 L-116.3,57.43 C-116.16,57.6 -116.05,57.78 -115.99,57.99 L-112.38,70.19 L-98.97,75.42 C-98.58,75.57 -98.28,75.88 -98.13,76.27 C-97.98,76.66 -98,77.09 -98.18,77.47 L-105.66,92.45 C-105.7,92.52 -105.74,92.59 -105.79,92.65 L-112.12,101.43 C-112.28,101.65 -112.5,101.83 -112.76,101.93 L-127.81,108.12 L-137.8,117.85 C-138.36,118.39 -139.24,118.41 -139.82,117.9 L-153.11,106.27 C-153.3,106.11 -153.44,105.9 -153.52,105.67 L-159.81,88.88 L-166.44,95.95 C-166.89,96.42 -167.59,96.55 -168.18,96.26 L-215.75,72.96 C-216.17,72.76 -216.46,72.38 -216.56,71.93 L-220.39,53.22 C-220.5,52.68 -220.31,52.13 -219.89,51.78 L-200.18,35.24 C-199.9,35.01 -199.55,34.89 -199.19,34.89 Z" fill-rule="evenodd" style="fill:#9D03A4;" />
			<path d="M403.77,-230.78 C403.51,-230.79 403.26,-230.7 403.06,-230.53 L389.87,-219.22 C389.6,-218.99 389.47,-218.65 389.51,-218.3 C389.55,-217.95 389.76,-217.65 390.06,-217.49 L402.08,-211.27 C402.14,-211.24 402.2,-211.22 402.25,-211.2 L409.04,-209.09 L413.96,-202.38 L409.19,-192.79 C409.11,-192.63 409.07,-192.46 409.08,-192.29 L409.32,-182.59 C409.33,-182.3 409.45,-182.03 409.66,-181.84 L417.86,-174.36 L410.99,-164.68 C410.91,-164.57 410.86,-164.45 410.83,-164.33 L407.97,-153.15 C407.85,-152.7 408.05,-152.23 408.45,-151.99 L421.82,-144.09 C421.91,-144.04 422.01,-144 422.11,-143.97 L432.49,-141.48 L426.83,-131.17 C426.71,-130.96 426.67,-130.71 426.72,-130.46 L429.04,-118.89 C429.1,-118.57 429.31,-118.3 429.59,-118.16 C429.88,-118.01 430.22,-118.01 430.51,-118.14 L441.32,-123.23 C441.62,-123.37 441.84,-123.65 441.9,-123.97 L445.34,-140.9 C445.37,-141.04 445.37,-141.18 445.34,-141.32 L441.72,-159.19 C441.66,-159.49 441.47,-159.76 441.2,-159.9 C440.93,-160.05 440.61,-160.07 440.32,-159.96 L433.5,-157.32 L432.27,-172.57 L441.06,-178.32 C441.49,-178.6 441.65,-179.15 441.44,-179.62 L435.12,-193.88 C435.11,-193.9 435.1,-193.93 435.09,-193.95 L428.79,-205.8 L423.41,-219.02 C423.37,-219.13 423.3,-219.23 423.22,-219.32 L414.4,-229.1 C414.23,-229.28 414.01,-229.4 413.76,-229.43 L403.88,-230.77 C403.84,-230.78 403.81,-230.78 403.77,-230.78 Z" fill-rule="evenodd" style="fill:#9D03A4;" />
		</g>
		<g transform="matrix(1.7600153684616089, 0, 0, 1.7600153684616089, 162.46217346191406, -119.21487426757812)">
			<path d="M-13.4,-0.37 Q-13.4,1.07 -13.76,2.25 Q-14.13,3.43 -14.85,4.28 Q-15.58,5.14 -16.65,5.59 Q-17.72,6.04 -19.13,6.04 Q-20.6,6.04 -21.68,5.58 Q-22.76,5.12 -23.47,4.28 Q-24.19,3.43 -24.54,2.25 Q-24.89,1.06 -24.89,-0.39 Q-24.89,-2.31 -24.26,-3.74 Q-23.63,-5.17 -22.35,-5.97 Q-21.07,-6.78 -19.11,-6.78 Q-17.25,-6.78 -15.98,-5.98 Q-14.7,-5.19 -14.05,-3.75 Q-13.4,-2.31 -13.4,-0.37 ZM-23.23,-0.37 Q-23.23,1.19 -22.8,2.33 Q-22.36,3.46 -21.44,4.07 Q-20.53,4.68 -19.13,4.68 Q-17.72,4.68 -16.82,4.07 Q-15.92,3.46 -15.49,2.33 Q-15.05,1.19 -15.05,-0.37 Q-15.05,-2.73 -16.03,-4.06 Q-17.01,-5.4 -19.11,-5.4 Q-20.53,-5.4 -21.44,-4.79 Q-22.36,-4.19 -22.8,-3.07 Q-23.23,-1.94 -23.23,-0.37 ZM-3.04,-3.48 L-3.04,5.87 L-4.29,5.87 L-4.52,4.63 L-4.59,4.63 Q-4.88,5.12 -5.36,5.43 Q-5.82,5.75 -6.38,5.89 Q-6.94,6.04 -7.55,6.04 Q-8.67,6.04 -9.43,5.69 Q-10.19,5.33 -10.57,4.58 Q-10.95,3.83 -10.95,2.64 L-10.95,-3.48 L-9.4,-3.48 L-9.4,2.54 Q-9.4,3.65 -8.89,4.21 Q-8.39,4.77 -7.32,4.77 Q-6.28,4.77 -5.68,4.38 Q-5.08,3.99 -4.82,3.23 Q-4.57,2.47 -4.57,1.39 L-4.57,-3.48 L-3.04,-3.48 ZM3.68,6.04 Q2.44,6.04 1.47,5.54 Q0.5,5.03 -0.05,3.97 Q-0.59,2.91 -0.59,1.25 Q-0.59,-0.48 -0.02,-1.56 Q0.56,-2.64 1.54,-3.15 Q2.53,-3.65 3.78,-3.65 Q4.5,-3.65 5.16,-3.5 Q5.83,-3.36 6.24,-3.15 L5.77,-1.88 Q5.35,-2.03 4.8,-2.17 Q4.24,-2.31 3.75,-2.31 Q2.81,-2.31 2.19,-1.91 Q1.59,-1.51 1.29,-0.72 Q0.99,0.06 0.99,1.23 Q0.99,2.35 1.29,3.13 Q1.59,3.91 2.18,4.32 Q2.77,4.72 3.66,4.72 Q4.43,4.72 5.01,4.56 Q5.6,4.4 6.09,4.18 L6.09,5.54 Q5.61,5.78 5.05,5.91 Q4.48,6.04 3.68,6.04 ZM16.11,-3.48 L16.11,5.87 L14.86,5.87 L14.63,4.63 L14.56,4.63 Q14.27,5.12 13.79,5.43 Q13.33,5.75 12.77,5.89 Q12.21,6.04 11.6,6.04 Q10.48,6.04 9.72,5.69 Q8.97,5.33 8.58,4.58 Q8.2,3.83 8.2,2.64 L8.2,-3.48 L9.75,-3.48 L9.75,2.54 Q9.75,3.65 10.26,4.21 Q10.76,4.77 11.83,4.77 Q12.87,4.77 13.47,4.38 Q14.08,3.99 14.33,3.23 Q14.58,2.47 14.58,1.39 L14.58,-3.48 L16.11,-3.48 ZM25.17,3.29 Q25.17,4.2 24.71,4.81 Q24.26,5.42 23.42,5.73 Q22.58,6.04 21.43,6.04 Q20.46,6.04 19.75,5.89 Q19.05,5.73 18.51,5.45 L18.51,4.06 Q19.06,4.34 19.85,4.57 Q20.65,4.8 21.47,4.8 Q22.64,4.8 23.16,4.43 Q23.69,4.06 23.69,3.43 Q23.69,3.08 23.49,2.8 Q23.3,2.52 22.8,2.24 Q22.31,1.96 21.38,1.62 Q20.48,1.27 19.83,0.92 Q19.19,0.57 18.84,0.08 Q18.49,-0.41 18.49,-1.18 Q18.49,-2.36 19.45,-3 Q20.43,-3.65 21.99,-3.65 Q22.85,-3.65 23.59,-3.49 Q24.33,-3.32 24.98,-3.03 L24.45,-1.8 Q23.86,-2.05 23.21,-2.23 Q22.57,-2.4 21.89,-2.4 Q20.94,-2.4 20.45,-2.09 Q19.95,-1.79 19.95,-1.26 Q19.95,-0.88 20.18,-0.61 Q20.4,-0.34 20.94,-0.08 Q21.47,0.17 22.36,0.52 Q23.25,0.84 23.87,1.19 Q24.5,1.54 24.84,2.04 Q25.17,2.54 25.17,3.29 Z" fill="#000000" fill-rule="evenodd" />
		</g>
		<g transform="matrix(1, 0, 0, 1, 12.535659790039062, -24.688859939575195)">
			<path d="M-83.58,-94.53 C-83.75,-94.53 -83.91,-94.5 -84.07,-94.43 L-88.88,-92.15 C-89.11,-92.04 -89.3,-91.85 -89.4,-91.61 L-92.06,-85.31 L-98.32,-81.26 C-98.58,-81.09 -98.75,-80.81 -98.79,-80.5 L-99.47,-74.64 C-99.48,-74.56 -99.49,-74.47 -99.47,-74.39 L-98.67,-68.03 C-98.64,-67.75 -98.48,-67.49 -98.25,-67.32 C-98.02,-67.15 -97.73,-67.08 -97.45,-67.13 L-92.45,-68.04 C-92.03,-68.12 -91.7,-68.45 -91.61,-68.87 L-90.66,-73.74 L-85.43,-77.34 C-85.27,-77.44 -85.15,-77.59 -85.07,-77.76 L-81.78,-84.9 C-81.7,-85.07 -81.66,-85.26 -81.69,-85.45 L-82.58,-93.59 C-82.62,-93.93 -82.81,-94.23 -83.11,-94.39 C-83.26,-94.48 -83.42,-94.52 -83.58,-94.53 Z" fill-rule="evenodd" style="fill:#FFF600;" />
			<path d="M-171.87,-121.07 C-171.91,-121.07 -171.94,-121.07 -171.98,-121.07 C-172.03,-121.07 -172.07,-121.06 -172.12,-121.05 L-183.06,-118.72 C-183.55,-118.61 -183.89,-118.18 -183.88,-117.68 L-183.75,-107.18 C-183.75,-106.89 -183.62,-106.6 -183.39,-106.41 L-176.31,-100.19 L-176.29,-100.17 L-171.67,-96.29 C-171.35,-96.03 -170.92,-95.98 -170.55,-96.15 L-163.91,-99.3 L-157.3,-101.08 L-152.86,-97.61 L-149.7,-95.13 C-149.4,-94.9 -148.99,-94.84 -148.64,-94.99 C-148.29,-95.14 -148.05,-95.46 -148.01,-95.84 L-146.97,-105.25 C-146.94,-105.59 -147.07,-105.93 -147.32,-106.15 L-154.77,-112.7 C-154.99,-112.9 -155.3,-112.99 -155.6,-112.96 L-162.97,-111.98 L-163.43,-117.52 C-163.47,-117.93 -163.74,-118.28 -164.13,-118.42 L-171.56,-121.01 C-171.66,-121.05 -171.77,-121.07 -171.87,-121.07 Z" fill-rule="evenodd" style="fill:#FFF600;" />
			<path d="M-174.09,-80.6 C-174.14,-80.6 -174.2,-80.6 -174.25,-80.6 L-180.15,-79.93 C-180.39,-79.91 -180.61,-79.8 -180.78,-79.62 L-186.73,-73.5 C-187.05,-73.18 -187.11,-72.68 -186.9,-72.28 L-183.44,-65.77 L-186.14,-61.28 C-186.17,-61.23 -186.2,-61.17 -186.22,-61.12 C-187.19,-58.58 -188.8,-54.83 -186.58,-52.61 C-184.61,-50.64 -179.7,-50.3 -175.6,-49.96 C-175.24,-49.93 -174.89,-50.08 -174.68,-50.37 L-171.13,-55.08 L-161.04,-62.02 C-160.79,-62.19 -160.63,-62.45 -160.59,-62.75 C-160.56,-63.05 -160.65,-63.35 -160.84,-63.57 L-170.51,-74.64 L-173.2,-80.02 C-173.37,-80.37 -173.71,-80.58 -174.09,-80.6 Z" fill-rule="evenodd" style="fill:#FFF600;" />
			<path d="M-110.85,-87.21 C-111.11,-87.21 -111.37,-87.12 -111.57,-86.95 L-117.1,-82.05 L-117.13,-82.03 L-119.24,-80.05 L-121.4,-80.67 C-121.72,-80.76 -122.06,-80.7 -122.33,-80.5 C-122.59,-80.3 -122.75,-79.99 -122.74,-79.66 L-122.68,-73.79 L-126.62,-73.19 L-129.36,-77.03 C-129.56,-77.3 -129.87,-77.47 -130.2,-77.47 C-130.54,-77.48 -130.85,-77.32 -131.05,-77.05 L-136.6,-69.68 C-136.75,-69.47 -136.83,-69.21 -136.8,-68.96 L-136.16,-61.64 C-136.12,-61.15 -135.74,-60.76 -135.26,-60.69 L-126.7,-59.53 C-126.43,-59.49 -126.16,-59.56 -125.94,-59.72 L-119.24,-64.68 C-119.11,-64.78 -119,-64.9 -118.93,-65.04 L-116.79,-69.19 L-114.43,-71.23 C-114.17,-71.45 -114.04,-71.8 -114.07,-72.14 L-114.42,-75.27 L-111.45,-76.68 C-111.28,-76.76 -111.13,-76.89 -111.03,-77.04 L-108.51,-80.78 C-108.33,-81.04 -108.28,-81.37 -108.38,-81.68 L-109.87,-86.47 C-109.98,-86.81 -110.25,-87.07 -110.59,-87.17 C-110.68,-87.19 -110.76,-87.21 -110.85,-87.21 Z" fill-rule="evenodd" style="fill:#FFF600;" />
			<path d="M39.13,-313.78 C38.95,-313.77 38.78,-313.71 38.62,-313.61 C38.31,-313.41 38.12,-313.07 38.12,-312.7 L38.2,-289.49 C38.2,-289.27 38.27,-289.06 38.4,-288.88 L51.24,-270.76 L37.74,-255.94 C37.43,-255.6 37.37,-255.11 37.59,-254.71 L44.21,-242.25 L38.68,-230.83 L19.87,-224.79 L4.78,-234.77 L-0.79,-253.67 L8.84,-266.81 C9.12,-267.19 9.11,-267.71 8.83,-268.09 L2.44,-276.5 C2.16,-276.87 1.67,-277.01 1.23,-276.86 L-22.07,-268.61 C-22.31,-268.53 -22.51,-268.37 -22.63,-268.15 L-30.21,-255.25 L-55.3,-261.16 L-67.93,-273.24 C-68.07,-273.37 -68.23,-273.46 -68.42,-273.5 L-94.02,-279.72 C-94.39,-279.82 -94.79,-279.7 -95.05,-279.41 L-113.5,-259.44 L-117.93,-256.26 L-122.27,-253.16 L-139.96,-240.49 C-140.15,-240.35 -140.29,-240.16 -140.36,-239.93 L-143.68,-229.05 C-143.79,-228.7 -143.71,-228.32 -143.47,-228.04 L-136.56,-219.88 L-133.69,-207.66 C-133.56,-207.1 -133,-206.74 -132.43,-206.86 L-120.97,-209.27 L-114.16,-199.37 L-114.15,-199.35 L-114.15,-199.35 L-114.15,-199.34 L-107.82,-187.99 L-117.75,-176.18 L-117.78,-176.15 L-127.2,-163.88 L-127.2,-163.88 L-136.16,-160.1 L-136.16,-160.1 L-136.17,-160.1 L-136.17,-160.1 L-136.17,-160.1 L-147.85,-161.17 L-147.86,-161.17 L-147.86,-161.17 L-159.58,-164.3 C-159.74,-164.35 -159.91,-164.35 -160.07,-164.32 L-172.98,-161.69 C-173.19,-161.64 -173.38,-161.54 -173.53,-161.39 L-180.8,-153.97 C-181.07,-153.7 -181.17,-153.3 -181.07,-152.93 L-179.33,-146.87 C-179.2,-146.43 -178.81,-146.12 -178.36,-146.09 L-170.64,-145.64 L-165.03,-134.95 L-164.97,-134.86 L-158.85,-125.61 C-158.66,-125.32 -158.34,-125.15 -157.99,-125.14 L-145.84,-124.76 L-130.02,-110.24 L-129.57,-98.44 C-129.55,-98.02 -129.29,-97.64 -128.89,-97.49 L-118.87,-93.55 C-118.47,-93.39 -118.01,-93.49 -117.71,-93.8 L-109.51,-102.29 L-97.62,-101.58 C-97.44,-101.57 -97.25,-101.61 -97.09,-101.69 L-86.69,-106.72 L-74.65,-101.85 L-67.84,-90.58 C-67.6,-90.18 -67.13,-89.99 -66.67,-90.1 L-59.87,-91.75 C-59.41,-91.87 -59.08,-92.27 -59.05,-92.74 L-58.65,-101.59 L-58.64,-101.6 L-58.64,-101.61 L-58.64,-101.64 C-58.64,-101.65 -58.64,-101.68 -58.64,-101.69 C-58.3,-105.58 -57.94,-109.46 -53.6,-112.88 C-49.25,-116.32 -40.92,-119.3 -32.55,-122.28 L-32.55,-122.28 L-32.38,-122.34 L-22.61,-114.73 C-22.29,-114.49 -21.86,-114.44 -21.5,-114.61 L-6.09,-121.83 L2.54,-118.52 C2.73,-118.45 2.93,-118.43 3.12,-118.46 L11.81,-120.07 C12.26,-120.16 12.6,-120.51 12.67,-120.96 L14.46,-131.89 L20.11,-131.36 L27.41,-128.13 C27.84,-127.95 28.33,-128.05 28.64,-128.4 L32.12,-132.32 C32.36,-132.59 32.45,-132.97 32.35,-133.32 L30.45,-139.96 L33.8,-145.76 L45.46,-151.65 L56.55,-141.21 C56.89,-140.9 57.38,-140.84 57.78,-141.05 L73.98,-149.52 L86.32,-147.5 C86.41,-147.49 86.5,-147.49 86.59,-147.5 L104.67,-149.11 L124.53,-141.66 C124.63,-141.62 124.73,-141.6 124.83,-141.59 L141.24,-140.46 C141.54,-140.44 141.83,-140.55 142.04,-140.75 L149.22,-147.49 C149.39,-147.65 149.5,-147.85 149.54,-148.07 L152.47,-163.59 C152.48,-163.68 152.49,-163.77 152.48,-163.85 L151.38,-181.97 L151.38,-181.97 L152.28,-196.07 C152.29,-196.33 152.22,-196.58 152.07,-196.78 L142.39,-209.82 C142.34,-209.89 142.29,-209.94 142.23,-209.99 L130.61,-220.03 C130.52,-220.1 130.43,-220.16 130.32,-220.2 L110.52,-228.55 L95.45,-247.39 L86.37,-280.05 C86.33,-280.22 86.24,-280.38 86.12,-280.51 L67.18,-300.27 C67.09,-300.36 66.99,-300.44 66.87,-300.49 L39.66,-313.67 C39.49,-313.75 39.31,-313.79 39.13,-313.78 Z" fill-rule="evenodd" style="fill:#FFF600;" />
		</g>
		<g transform="matrix(1.8154163360595703, 0, 0, 1.8154163360595703, 34.03673553466797, -212.68299865722656)">
			<path d="M-32.86,9.23 L-35.74,9.23 L-46.21,-7.03 L-46.32,-7.03 Q-46.27,-6.4 -46.23,-5.54 Q-46.19,-4.68 -46.15,-3.7 Q-46.11,-2.73 -46.11,-1.71 L-46.11,9.23 L-48.38,9.23 L-48.38,-10.35 L-45.53,-10.35 L-35.08,5.85 L-34.97,5.85 Q-35,5.42 -35.04,4.54 Q-35.08,3.66 -35.12,2.62 Q-35.16,1.58 -35.16,0.7 L-35.16,-10.35 L-32.86,-10.35 L-32.86,9.23 ZM-15.09,1.85 Q-15.09,3.69 -15.58,5.1 Q-16.05,6.51 -16.95,7.5 Q-17.84,8.48 -19.12,8.99 Q-20.39,9.5 -21.95,9.5 Q-23.4,9.5 -24.64,8.99 Q-25.87,8.48 -26.77,7.5 Q-27.68,6.51 -28.19,5.1 Q-28.7,3.69 -28.7,1.85 Q-28.7,-0.59 -27.87,-2.27 Q-27.05,-3.96 -25.52,-4.85 Q-23.98,-5.74 -21.87,-5.74 Q-19.87,-5.74 -18.35,-4.85 Q-16.82,-3.96 -15.96,-2.27 Q-15.09,-0.59 -15.09,1.85 ZM-26.2,1.85 Q-26.2,3.58 -25.75,4.86 Q-25.3,6.13 -24.34,6.82 Q-23.37,7.5 -21.89,7.5 Q-20.42,7.5 -19.46,6.82 Q-18.49,6.13 -18.05,4.86 Q-17.59,3.58 -17.59,1.85 Q-17.59,0.1 -18.06,-1.14 Q-18.52,-2.37 -19.47,-3.04 Q-20.42,-3.71 -21.92,-3.71 Q-24.17,-3.71 -25.19,-2.23 Q-26.2,-0.75 -26.2,1.85 ZM-4.43,-5.74 Q-4.01,-5.74 -3.54,-5.7 Q-3.06,-5.66 -2.7,-5.58 L-3,-3.36 Q-3.36,-3.44 -3.79,-3.49 Q-4.21,-3.55 -4.59,-3.55 Q-5.44,-3.55 -6.21,-3.19 Q-6.98,-2.84 -7.58,-2.19 Q-8.18,-1.55 -8.53,-0.64 Q-8.87,0.26 -8.87,1.39 L-8.87,9.23 L-11.28,9.23 L-11.28,-5.47 L-9.31,-5.47 L-9.03,-2.78 L-8.93,-2.78 Q-8.46,-3.61 -7.8,-4.28 Q-7.14,-4.95 -6.29,-5.35 Q-5.44,-5.74 -4.43,-5.74 ZM3.27,9.23 L-2.29,-5.47 L0.29,-5.47 L3.41,3.2 Q3.63,3.8 3.88,4.54 Q4.12,5.28 4.32,5.95 Q4.51,6.62 4.59,7.09 L4.7,7.09 Q4.81,6.62 5.01,5.94 Q5.22,5.25 5.48,4.51 Q5.74,3.77 5.94,3.2 L9.06,-5.47 L11.64,-5.47 L6.04,9.23 L3.27,9.23 ZM16.38,-5.47 L16.38,9.23 L13.97,9.23 L13.97,-5.47 L16.38,-5.47 ZM15.2,-10.98 Q15.75,-10.98 16.17,-10.61 Q16.6,-10.24 16.6,-9.44 Q16.6,-8.68 16.17,-8.29 Q15.75,-7.91 15.2,-7.91 Q14.6,-7.91 14.18,-8.29 Q13.77,-8.68 13.77,-9.44 Q13.77,-10.24 14.18,-10.61 Q14.6,-10.98 15.2,-10.98 ZM26.61,-5.71 Q29.3,-5.71 30.58,-4.54 Q31.87,-3.36 31.87,-0.78 L31.87,9.23 L30.12,9.23 L29.65,7.14 L29.54,7.14 Q28.91,7.93 28.24,8.47 Q27.57,9.01 26.71,9.25 Q25.84,9.5 24.61,9.5 Q23.29,9.5 22.23,9.04 Q21.18,8.57 20.57,7.6 Q19.97,6.62 19.97,5.14 Q19.97,2.95 21.7,1.76 Q23.43,0.56 27.02,0.45 L29.52,0.37 L29.52,-0.51 Q29.52,-2.35 28.72,-3.06 Q27.92,-3.77 26.47,-3.77 Q25.32,-3.77 24.28,-3.43 Q23.24,-3.08 22.33,-2.65 L21.59,-4.46 Q22.55,-4.98 23.87,-5.35 Q25.19,-5.71 26.61,-5.71 ZM27.32,2.12 Q24.58,2.24 23.53,3.01 Q22.47,3.77 22.47,5.17 Q22.47,6.4 23.22,6.98 Q23.97,7.55 25.16,7.55 Q27.02,7.55 28.25,6.53 Q29.49,5.5 29.49,3.36 L29.49,2.04 L27.32,2.12 ZM43.5,-5.74 Q46.13,-5.74 47.48,-4.46 Q48.82,-3.19 48.82,-0.35 L48.82,9.23 L46.43,9.23 L46.43,-0.18 Q46.43,-1.96 45.64,-2.84 Q44.85,-3.71 43.15,-3.71 Q40.7,-3.71 39.77,-2.34 Q38.84,-0.98 38.84,1.6 L38.84,9.23 L36.42,9.23 L36.42,-5.47 L38.37,-5.47 L38.73,-3.47 L38.87,-3.47 Q39.36,-4.24 40.09,-4.74 Q40.82,-5.25 41.69,-5.49 Q42.57,-5.74 43.5,-5.74 Z" fill="#000000" fill-rule="evenodd" />
		</g>
		<g transform="matrix(1, 0, 0, 1, 4.741535186767578, -15.939794540405273)">
			<path d="M-198.07,-79.11 C-197.61,-79.1 -197.2,-78.8 -197.08,-78.34 L-194.99,-70.9 C-194.97,-70.81 -194.96,-70.71 -194.96,-70.62 C-194.96,-70.49 -194.98,-70.37 -195.02,-70.25 L-197.95,-62.35 C-198.09,-61.96 -198.45,-61.69 -198.86,-61.66 L-205.79,-61.21 C-206.3,-61.18 -206.76,-61.52 -206.88,-62.01 L-208.69,-69.62 C-208.81,-70.11 -208.56,-70.62 -208.09,-70.82 L-203.01,-73 L-204.08,-76.92 C-204.16,-77.21 -204.11,-77.51 -203.96,-77.76 C-203.8,-78.01 -203.54,-78.18 -203.25,-78.23 L-198.26,-79.09 C-198.2,-79.11 -198.13,-79.11 -198.07,-79.11 Z" fill-rule="evenodd" style="fill:#F5060B;" />
			<path d="M-207.57,-56.84 C-207.48,-56.84 -207.39,-56.83 -207.29,-56.81 L-200.61,-55.21 L-191.26,-53.91 C-190.85,-53.85 -190.51,-53.56 -190.4,-53.16 C-190.28,-52.76 -190.42,-52.33 -190.73,-52.06 L-195.42,-48.16 L-200.66,-41.69 C-200.71,-41.63 -200.76,-41.58 -200.82,-41.53 L-209.99,-34.14 C-210.33,-33.87 -210.81,-33.83 -211.19,-34.06 L-216.59,-37.33 C-216.81,-37.47 -216.97,-37.68 -217.05,-37.93 L-218.51,-42.84 C-218.56,-43.02 -218.56,-43.21 -218.52,-43.39 L-215.95,-53.8 L-215.95,-53.79 C-215.86,-54.15 -215.6,-54.44 -215.24,-54.55 L-207.84,-56.8 C-207.75,-56.82 -207.66,-56.84 -207.57,-56.84 Z" fill-rule="evenodd" style="fill:#F5060B;" />
			<path d="M-235.38,-65.79 C-235.23,-65.79 -235.07,-65.74 -234.92,-65.66 C-234.54,-65.44 -234.33,-65 -234.41,-64.56 L-234.71,-62.89 L-233.04,-63.97 C-232.61,-64.25 -232.04,-64.18 -231.7,-63.8 L-228.69,-60.48 C-228.64,-60.43 -228.6,-60.37 -228.56,-60.31 L-225.86,-55.72 C-225.74,-55.51 -225.69,-55.27 -225.73,-55.03 L-226.53,-49.93 C-226.56,-49.72 -226.66,-49.52 -226.81,-49.36 L-229.03,-47.07 L-231.77,-43.71 L-232.52,-39.47 C-232.61,-39.01 -232.98,-38.66 -233.45,-38.61 L-237.19,-38.22 C-237.45,-38.19 -237.71,-38.26 -237.92,-38.42 L-242.79,-42.01 C-242.83,-42.03 -242.86,-42.06 -242.89,-42.09 L-246.95,-45.94 C-247.31,-46.28 -247.38,-46.81 -247.14,-47.23 L-244.3,-52.09 L-244.33,-56.41 C-244.33,-56.65 -244.24,-56.89 -244.09,-57.08 L-239.42,-62.7 L-239.42,-62.7 C-239.38,-62.74 -239.34,-62.79 -239.29,-62.83 L-236.13,-65.54 C-235.92,-65.73 -235.65,-65.81 -235.38,-65.79 Z" fill-rule="evenodd" style="fill:#F5060B;" />
			<path d="M-244.11,-36.73 C-244.17,-36.73 -244.23,-36.73 -244.3,-36.72 L-255.62,-35.17 C-255.97,-35.12 -256.27,-34.9 -256.42,-34.58 L-261.61,-23.57 C-261.67,-23.44 -261.71,-23.3 -261.71,-23.16 L-262.21,-10.33 L-271.35,-5.8 L-296.69,-21.91 C-297.04,-22.14 -297.5,-22.13 -297.84,-21.89 L-308.76,-14.39 C-308.95,-14.27 -309.08,-14.09 -309.16,-13.88 L-315.96,5.59 C-316.07,5.91 -316.02,6.26 -315.83,6.54 C-315.63,6.81 -315.32,6.98 -314.98,6.99 L-308.54,7.09 L-311.48,15.41 C-311.54,15.59 -311.55,15.77 -311.52,15.95 L-309.8,25.45 C-309.78,25.54 -309.75,25.63 -309.71,25.72 C-307.79,29.67 -305.64,34.23 -302.8,35.72 C-301.8,36.24 -300.77,36.37 -299.82,36.37 C-299.21,36.37 -298.59,36.31 -298.04,36.26 C-297.48,36.21 -296.98,36.17 -296.49,36.17 C-295.91,36.17 -295.42,36.24 -294.98,36.4 C-293.08,37.14 -291.47,40.05 -289.57,43.62 C-289.41,43.91 -289.13,44.11 -288.8,44.16 C-288.47,44.21 -288.14,44.1 -287.9,43.87 L-279.36,35.35 L-269.25,46.92 C-269.07,47.14 -268.8,47.27 -268.52,47.28 L-258.91,47.84 C-258.63,47.85 -258.36,47.76 -258.15,47.57 C-257.95,47.38 -257.82,47.12 -257.81,46.84 L-257.36,37.35 L-250.53,32.83 L-240.75,35.74 C-240.31,35.87 -239.83,35.7 -239.57,35.31 L-234.32,27.26 C-234.1,26.91 -234.09,26.46 -234.32,26.11 L-240.05,17.31 L-229.63,11.9 C-229.23,11.69 -229.01,11.24 -229.08,10.79 L-230.35,3.43 L-223,-5.79 L-222.99,-5.8 L-217.65,-12.64 L-207.3,-16.4 C-206.83,-16.57 -206.54,-17.06 -206.63,-17.56 L-208.44,-27.96 C-208.51,-28.33 -208.76,-28.64 -209.11,-28.77 L-218.48,-32.24 C-218.74,-32.34 -219.02,-32.33 -219.28,-32.21 L-225.4,-29.44 C-225.45,-29.42 -225.49,-29.4 -225.53,-29.37 L-231.35,-25.67 L-235.54,-31.16 C-235.61,-31.25 -235.69,-31.33 -235.79,-31.4 L-243.57,-36.56 C-243.73,-36.66 -243.92,-36.72 -244.11,-36.73 Z" fill-rule="evenodd" style="fill:#F5060B;" />
			<path d="M-370.77,-289.59 C-374.91,-289.3 -379.59,-289.02 -382.54,-286.47 C-385.48,-283.93 -386.52,-279.28 -387.48,-275.17 C-387.55,-274.86 -387.48,-274.54 -387.29,-274.29 C-387.1,-274.04 -386.81,-273.89 -386.5,-273.88 L-376.51,-273.55 L-379.98,-265.06 C-380.09,-264.8 -380.09,-264.5 -379.98,-264.24 C-379.86,-263.99 -379.65,-263.78 -379.39,-263.68 L-368.35,-259.44 C-367.85,-259.24 -367.29,-259.46 -367.04,-259.94 L-361.98,-269.97 C-361.84,-270.26 -361.84,-270.6 -361.97,-270.89 L-366.01,-279.35 L-369.72,-288.93 C-369.89,-289.36 -370.32,-289.63 -370.77,-289.59 Z" fill-rule="evenodd" style="fill:#F5060B;" />
			<path d="M-394.32,-262.31 C-394.43,-262.31 -394.54,-262.28 -394.65,-262.24 C-394.95,-262.13 -395.18,-261.88 -395.28,-261.58 L-400.23,-246.61 L-415.88,-243.04 C-416.1,-243 -416.3,-242.88 -416.44,-242.71 L-426.36,-231.2 C-426.53,-231 -426.62,-230.74 -426.61,-230.47 L-426.1,-219.62 C-426.08,-219.25 -425.87,-218.92 -425.54,-218.75 C-425.22,-218.57 -424.83,-218.58 -424.51,-218.77 L-413.87,-225.21 C-413.82,-225.24 -413.78,-225.27 -413.74,-225.3 L-403.72,-233.54 L-390.76,-238.87 C-390.54,-238.96 -390.36,-239.12 -390.25,-239.33 L-383.66,-251.18 C-383.43,-251.59 -383.5,-252.1 -383.84,-252.43 L-393.55,-262.01 C-393.73,-262.19 -393.96,-262.29 -394.21,-262.31 C-394.25,-262.31 -394.28,-262.31 -394.32,-262.31 Z" fill-rule="evenodd" style="fill:#F5060B;" />
			<path d="M-357.03,-246.34 L-335.7,-245.6 C-335.26,-245.58 -334.89,-245.3 -334.74,-244.9 C-334.6,-244.49 -334.72,-244.04 -335.05,-243.76 L-350.06,-230.8 L-340.71,-215.55 C-340.53,-215.26 -340.5,-214.9 -340.64,-214.59 L-346.47,-201.18 C-346.59,-200.92 -346.81,-200.71 -347.09,-200.61 C-347.36,-200.52 -347.66,-200.54 -347.92,-200.67 L-358.23,-206.02 L-376.68,-207.96 C-376.74,-207.97 -376.8,-207.98 -376.86,-208 L-393.99,-212.96 C-394.22,-213.02 -394.42,-213.16 -394.55,-213.36 L-402.25,-224.2 C-402.46,-224.49 -402.51,-224.87 -402.37,-225.2 C-402.23,-225.54 -401.93,-225.78 -401.57,-225.84 L-381.57,-229.21 C-381.5,-229.22 -381.43,-229.22 -381.36,-229.22 L-368.9,-228.9 L-370.9,-239.73 C-370.99,-240.22 -370.73,-240.7 -370.27,-240.89 L-357.48,-246.25 C-357.34,-246.32 -357.19,-246.35 -357.03,-246.34 Z" fill-rule="evenodd" style="fill:#F5060B;" />
			<path d="M-220.57,-354.01 C-220.62,-354 -220.68,-354 -220.74,-353.99 L-233.31,-351.53 L-233.4,-351.51 L-253.15,-345.92 L-253.27,-345.88 L-276.81,-336.1 C-276.98,-336.03 -277.13,-335.92 -277.24,-335.78 L-298.13,-308.97 L-314.78,-297.86 C-314.99,-297.72 -315.14,-297.51 -315.21,-297.27 L-319.82,-280.86 L-329.91,-266.53 C-330.18,-266.15 -330.16,-265.63 -329.87,-265.27 L-319.67,-252.72 C-319.39,-252.37 -318.91,-252.24 -318.48,-252.4 L-301.99,-258.77 L-281.13,-258.62 L-266.18,-251.68 L-276.5,-244.74 L-295.11,-245.5 C-295.21,-245.5 -295.32,-245.49 -295.42,-245.46 L-318.92,-239.16 L-332.82,-236.52 C-333.1,-236.47 -333.35,-236.3 -333.51,-236.05 C-333.66,-235.81 -333.71,-235.51 -333.64,-235.23 L-328.48,-215.51 C-328.46,-215.42 -328.42,-215.32 -328.37,-215.24 L-319.58,-200.67 L-320.16,-182.94 L-332.46,-171.24 L-346.98,-177.49 L-356.87,-189.92 C-357.06,-190.16 -357.36,-190.31 -357.67,-190.31 L-380.47,-190.62 L-401.36,-205.28 C-401.51,-205.38 -401.68,-205.45 -401.86,-205.46 C-401.93,-205.47 -401.95,-205.47 -401.95,-205.47 C-401.96,-205.47 -401.97,-205.47 -402.01,-205.48 C-405.34,-205.79 -408.72,-206.09 -411.88,-206.09 C-416.51,-206.09 -420.9,-205.44 -424.14,-202.97 C-429.52,-198.86 -431.28,-189.97 -432.96,-181.75 C-433.06,-181.24 -432.78,-180.74 -432.3,-180.56 L-418.81,-175.57 L-424.86,-158.42 L-436.79,-164.68 C-437.07,-164.82 -437.4,-164.84 -437.69,-164.72 L-456.4,-156.85 L-470.99,-153.93 C-471.45,-153.84 -471.79,-153.46 -471.83,-153 L-474.65,-120.46 C-474.66,-120.31 -474.64,-120.17 -474.6,-120.03 L-464.55,-90.99 L-470.93,-74.35 C-471.02,-74.13 -471.03,-73.88 -470.96,-73.66 L-458.25,-33.05 L-449.12,-0.24 L-449.11,-0.21 L-444.24,15.4 L-443.91,44.97 C-443.91,45.32 -443.73,45.65 -443.44,45.84 L-424.22,58.53 C-423.91,58.74 -423.52,58.76 -423.18,58.6 L-393.25,44.14 C-392.87,43.95 -392.63,43.55 -392.66,43.12 L-394.61,17.73 C-388.08,13.35 -381.48,8.89 -372.77,2.1 C-363.9,-4.81 -352.83,-14.16 -341.79,-23.49 C-329.01,-25.25 -315.93,-27.08 -304.38,-36.35 C-292.81,-45.64 -282.83,-62.34 -272.99,-78.79 C-272.85,-79.02 -272.81,-79.3 -272.88,-79.57 L-280.66,-112.31 L-262.68,-143.06 L-235.17,-180.07 L-202.05,-199.96 C-202.01,-199.99 -201.96,-200.02 -201.92,-200.05 L-192.05,-208.26 C-191.98,-208.32 -191.92,-208.38 -191.87,-208.46 L-185.6,-217.3 C-185.49,-217.46 -185.43,-217.65 -185.41,-217.84 L-183.87,-242.1 L-167.85,-246.71 C-167.55,-246.8 -167.3,-247.02 -167.18,-247.31 C-167.05,-247.6 -167.07,-247.93 -167.21,-248.21 L-170.4,-254.29 C-163.66,-256.02 -156.82,-257.82 -154.49,-259.49 C-153.97,-259.87 -153.52,-260.33 -153.32,-260.92 C-153.19,-261.3 -153.18,-261.68 -153.27,-262.05 C-153.35,-262.37 -153.5,-262.64 -153.67,-262.87 C-154.14,-263.54 -155.03,-264.14 -155.97,-264.68 L-144.59,-270.09 C-144.18,-270.29 -143.94,-270.72 -144,-271.17 C-144.06,-271.62 -144.39,-271.98 -144.83,-272.06 L-155.41,-274.2 C-155.51,-274.22 -155.62,-274.23 -155.73,-274.21 L-164.08,-273.33 C-164.16,-273.32 -164.23,-273.3 -164.31,-273.27 L-174.78,-269.63 L-162.65,-279.8 L-141,-286.3 C-140.9,-286.33 -140.81,-286.38 -140.72,-286.43 L-120.19,-300.03 C-119.81,-300.28 -119.63,-300.75 -119.76,-301.18 C-119.88,-301.62 -120.27,-301.93 -120.72,-301.95 L-141.64,-302.84 C-141.77,-302.85 -141.91,-302.83 -142.03,-302.79 L-159.71,-296.73 L-169.18,-297.83 L-158.14,-303.66 C-158.02,-303.73 -157.92,-303.81 -157.83,-303.92 L-150.5,-312.74 L-148.06,-315.69 L-148.05,-315.69 L-146.99,-316.97 L-129.94,-327.02 C-129.66,-327.19 -129.47,-327.47 -129.43,-327.79 C-129.39,-328.11 -129.5,-328.43 -129.72,-328.66 L-135.89,-334.94 C-136.1,-335.15 -136.4,-335.27 -136.7,-335.25 L-150.26,-334.42 L-161.55,-336.98 C-161.65,-337 -161.74,-337.01 -161.84,-337.01 L-180.78,-335.86 L-180.9,-335.85 L-199.9,-332.47 L-219.69,-332.8 L-213.51,-340.05 C-213.24,-340.37 -213.18,-340.82 -213.38,-341.2 L-219.6,-353.43 C-219.79,-353.8 -220.17,-354.02 -220.57,-354.01 Z" fill-rule="evenodd" style="fill:#F5060B;" />
		</g>
		<g transform="matrix(1.9186949729919434, 0, 0, 1.9186949729919434, -358.4070129394531, -123.28205871582031)">
			<path d="M-23.12,-10.36 Q-19.44,-10.36 -17.56,-9.28 Q-15.68,-8.19 -15.68,-5.51 Q-15.68,-4.36 -16.11,-3.46 Q-16.53,-2.57 -17.37,-1.98 Q-18.21,-1.39 -19.41,-1.17 L-19.41,-1.03 Q-18.18,-0.84 -17.18,-0.32 Q-16.18,0.2 -15.6,1.16 Q-15.03,2.12 -15.03,3.66 Q-15.03,5.44 -15.85,6.69 Q-16.67,7.93 -18.19,8.58 Q-19.71,9.23 -21.83,9.23 L-28.72,9.23 L-28.72,-10.36 L-23.12,-10.36 ZM-22.62,-2.02 Q-20.1,-2.02 -19.17,-2.83 Q-18.23,-3.64 -18.23,-5.23 Q-18.23,-6.85 -19.37,-7.54 Q-20.51,-8.25 -23.01,-8.25 L-26.25,-8.25 L-26.25,-2.02 L-22.62,-2.02 ZM-26.25,0.04 L-26.25,7.14 L-22.29,7.14 Q-19.69,7.14 -18.68,6.13 Q-17.66,5.11 -17.66,3.47 Q-17.66,2.42 -18.11,1.66 Q-18.56,0.89 -19.62,0.47 Q-20.68,0.04 -22.49,0.04 L-26.25,0.04 ZM-4.35,-5.75 Q-3.94,-5.75 -3.46,-5.71 Q-2.98,-5.67 -2.63,-5.59 L-2.93,-3.36 Q-3.28,-3.45 -3.71,-3.5 Q-4.13,-3.56 -4.51,-3.56 Q-5.36,-3.56 -6.14,-3.2 Q-6.91,-2.84 -7.51,-2.2 Q-8.11,-1.56 -8.45,-0.65 Q-8.79,0.26 -8.79,1.38 L-8.79,9.23 L-11.21,9.23 L-11.21,-5.47 L-9.24,-5.47 L-8.96,-2.79 L-8.85,-2.79 Q-8.39,-3.61 -7.73,-4.28 Q-7.07,-4.96 -6.22,-5.35 Q-5.36,-5.75 -4.35,-5.75 ZM2.54,-5.47 L2.54,9.23 L0.12,9.23 L0.12,-5.47 L2.54,-5.47 ZM1.35,-10.99 Q1.9,-10.99 2.32,-10.62 Q2.75,-10.25 2.75,-9.45 Q2.75,-8.69 2.32,-8.3 Q1.9,-7.92 1.35,-7.92 Q0.75,-7.92 0.33,-8.3 Q-0.08,-8.69 -0.08,-9.45 Q-0.08,-10.25 0.33,-10.62 Q0.75,-10.99 1.35,-10.99 ZM19.98,1.85 Q19.98,3.69 19.5,5.1 Q19.03,6.51 18.13,7.5 Q17.24,8.48 15.96,8.99 Q14.68,9.5 13.12,9.5 Q11.67,9.5 10.43,8.99 Q9.2,8.48 8.29,7.5 Q7.39,6.51 6.88,5.1 Q6.37,3.69 6.37,1.85 Q6.37,-0.59 7.2,-2.28 Q8.02,-3.97 9.55,-4.86 Q11.09,-5.75 13.2,-5.75 Q15.21,-5.75 16.73,-4.86 Q18.25,-3.97 19.12,-2.28 Q19.98,-0.59 19.98,1.85 ZM8.87,1.85 Q8.87,3.57 9.32,4.85 Q9.78,6.13 10.73,6.82 Q11.7,7.5 13.18,7.5 Q14.66,7.5 15.62,6.82 Q16.58,6.13 17.03,4.85 Q17.48,3.57 17.48,1.85 Q17.48,0.09 17.02,-1.14 Q16.55,-2.38 15.6,-3.05 Q14.66,-3.72 13.15,-3.72 Q10.9,-3.72 9.88,-2.24 Q8.87,-0.76 8.87,1.85 ZM28.7,7.53 Q29.25,7.53 29.83,7.43 Q30.41,7.33 30.77,7.22 L30.77,9.06 Q30.38,9.25 29.66,9.37 Q28.95,9.5 28.3,9.5 Q27.14,9.5 26.17,9.11 Q25.19,8.7 24.59,7.72 Q23.99,6.73 23.99,4.95 L23.99,-3.61 L21.91,-3.61 L21.91,-4.76 L24.02,-5.72 L24.97,-8.85 L26.4,-8.85 L26.4,-5.47 L30.65,-5.47 L30.65,-3.61 L26.4,-3.61 L26.4,4.89 Q26.4,6.24 27.04,6.88 Q27.69,7.53 28.7,7.53 Z" fill="#000000" fill-rule="evenodd" />
		</g>
		<path d="M563.74,-551.42 C396.72,-551.42 249.1,-551.38 120.43,-551.33 C-312.01,-551.14 -530.27,-550.77 -550.87,-551.14 C-551.64,-519.87 -550.66,-484.99 -550.22,-484.76 L-512.24,-428.07 L-456.98,-430.79 C-456.76,-430.36 -428.8,-400.6 -428.31,-400.72 L-322.64,-410.6 C-322.56,-410.62 -322.48,-410.65 -322.41,-410.68 L-199.82,-469.84 L-142.73,-418.11 C-142.47,-417.87 -142.1,-417.77 -141.75,-417.85 L-72.4,-433.81 L2.96,-444.38 L63.14,-407.35 C63.32,-407.24 63.53,-407.19 63.74,-407.19 L109.63,-408.16 C109.89,-408.16 110.14,-408.26 110.33,-408.43 C121.35,-418.27 132.14,-427.89 150.1,-430.41 C157.95,-431.52 167.23,-431.27 177.34,-430.25 C190.38,-428.93 204.74,-426.31 219.15,-423.68 C230.92,-415.16 242.99,-406.43 257.35,-404.98 C258.99,-404.81 260.66,-404.74 262.36,-404.77 L262.36,-404.77 C278.85,-405.1 298.27,-415.36 317.38,-425.47 C338.73,-416.94 360.26,-408.36 381.4,-406.22 C393.25,-405.02 405,-405.83 416.57,-409.79 C448.83,-420.83 530.64,-452.86 560.89,-488 C561.44,-488.63 564.56,-550.97 563.75,-551.42 L563.75,-551.42 L563.75,-551.42 C563.74,-551.42 563.74,-551.42 563.74,-551.42 Z" fill-rule="evenodd" style="fill:#F5EBE0;" />
		<g transform="matrix(2.140430212020874, 0, 0, 2.140430212020874, -145.70962524414062, -478.2240295410156)">
			<path d="M-21.78,-7.49 Q-23.17,-7.49 -24.29,-7.01 Q-25.4,-6.54 -26.18,-5.63 Q-26.96,-4.72 -27.37,-3.42 Q-27.78,-2.12 -27.78,-0.5 Q-27.78,1.64 -27.12,3.22 Q-26.45,4.79 -25.13,5.64 Q-23.8,6.49 -21.81,6.49 Q-20.67,6.49 -19.65,6.3 Q-18.63,6.1 -17.66,5.81 L-17.66,7.7 Q-18.63,8.07 -19.66,8.24 Q-20.69,8.41 -22.13,8.41 Q-24.77,8.41 -26.54,7.32 Q-28.31,6.22 -29.2,4.21 Q-30.08,2.19 -30.08,-0.52 Q-30.08,-2.49 -29.54,-4.11 Q-28.99,-5.74 -27.94,-6.92 Q-26.88,-8.11 -25.33,-8.75 Q-23.77,-9.4 -21.76,-9.4 Q-20.43,-9.4 -19.19,-9.13 Q-17.95,-8.87 -16.98,-8.38 L-17.86,-6.54 Q-18.66,-6.91 -19.64,-7.2 Q-20.62,-7.49 -21.78,-7.49 ZM-12.03,8.17 L-14.17,8.17 L-14.17,-10.28 L-12.03,-10.28 L-12.03,8.17 ZM-2.98,-5.06 Q-0.6,-5.06 0.53,-4.01 Q1.68,-2.97 1.68,-0.69 L1.68,8.17 L0.13,8.17 L-0.29,6.32 L-0.38,6.32 Q-0.94,7.02 -1.54,7.5 Q-2.13,7.97 -2.9,8.19 Q-3.66,8.41 -4.75,8.41 Q-5.92,8.41 -6.85,8 Q-7.78,7.58 -8.32,6.73 Q-8.85,5.86 -8.85,4.55 Q-8.85,2.61 -7.33,1.55 Q-5.79,0.5 -2.62,0.4 L-0.41,0.33 L-0.41,-0.45 Q-0.41,-2.08 -1.11,-2.71 Q-1.82,-3.34 -3.1,-3.34 Q-4.12,-3.34 -5.05,-3.03 Q-5.96,-2.73 -6.76,-2.34 L-7.42,-3.94 Q-6.57,-4.41 -5.41,-4.73 Q-4.24,-5.06 -2.98,-5.06 ZM-2.35,1.88 Q-4.77,1.98 -5.71,2.66 Q-6.65,3.34 -6.65,4.58 Q-6.65,5.67 -5.98,6.17 Q-5.31,6.68 -4.26,6.68 Q-2.62,6.68 -1.53,5.78 Q-0.43,4.87 -0.43,2.97 L-0.43,1.81 L-2.35,1.88 ZM11.77,-5.08 Q12.14,-5.08 12.56,-5.05 Q12.99,-5.01 13.3,-4.94 L13.03,-2.97 Q12.72,-3.04 12.34,-3.09 Q11.97,-3.14 11.63,-3.14 Q10.88,-3.14 10.2,-2.82 Q9.52,-2.51 8.98,-1.94 Q8.45,-1.37 8.15,-0.57 Q7.84,0.23 7.84,1.23 L7.84,8.17 L5.71,8.17 L5.71,-4.84 L7.45,-4.84 L7.7,-2.46 L7.79,-2.46 Q8.21,-3.19 8.79,-3.78 Q9.37,-4.38 10.13,-4.73 Q10.88,-5.08 11.77,-5.08 ZM17.87,-4.84 L17.87,8.17 L15.73,8.17 L15.73,-4.84 L17.87,-4.84 ZM16.82,-9.72 Q17.3,-9.72 17.68,-9.39 Q18.06,-9.06 18.06,-8.36 Q18.06,-7.68 17.68,-7.34 Q17.3,-7 16.82,-7 Q16.28,-7 15.92,-7.34 Q15.56,-7.68 15.56,-8.36 Q15.56,-9.06 15.92,-9.39 Q16.28,-9.72 16.82,-9.72 ZM27.21,8.41 Q25.48,8.41 24.13,7.7 Q22.79,7 22.02,5.52 Q21.26,4.04 21.26,1.74 Q21.26,-0.67 22.06,-2.17 Q22.86,-3.68 24.23,-4.38 Q25.6,-5.08 27.35,-5.08 Q28.34,-5.08 29.27,-4.87 Q30.19,-4.67 30.77,-4.38 L30.12,-2.61 Q29.54,-2.82 28.76,-3.02 Q27.98,-3.22 27.3,-3.22 Q25.99,-3.22 25.14,-2.66 Q24.29,-2.1 23.88,-1.01 Q23.47,0.08 23.47,1.71 Q23.47,3.27 23.88,4.36 Q24.29,5.45 25.12,6.01 Q25.95,6.57 27.18,6.57 Q28.25,6.57 29.06,6.35 Q29.87,6.13 30.55,5.81 L30.55,7.7 Q29.9,8.05 29.11,8.22 Q28.32,8.41 27.21,8.41 Z" fill="#000000" fill-rule="evenodd" />
		</g>
		<path d="M-397.4,343.21 C-397.68,343.23 -397.94,343.36 -398.12,343.57 L-475.43,433.12 C-475.57,433.29 -475.66,433.49 -475.68,433.7 L-478.37,437.19 L-536.54,561.96 C-536.76,562.27 -536.79,562.69 -536.61,563.03 C-541.95,563.03 -545.53,577.61 -539.6,597.07 L550.04,597.07 C556.37,564.37 541.14,550.99 537.05,515.09 C554.93,500.44 512.41,473.53 512.11,473.22 L477.61,438.3 C462.86,415.76 426.25,419.01 426.16,418.97 L387.66,446.62 C387.51,446.53 334.18,463.72 334,463.71 L254.37,476.52 C254.13,476.51 253.9,476.58 253.71,476.72 L162.3,544.58 L29.25,512.09 L-53.97,437.12 C-54.29,436.84 -54.74,436.77 -55.12,436.95 L-155.2,484.65 L-309.91,420.22 L-396.64,343.47 C-396.85,343.29 -397.12,343.19 -397.4,343.21 Z" fill-rule="evenodd" style="fill:#3E3B39;" />
		<g transform="matrix(1.9186949729919434, 0, 0, 1.9186949729919434, -49.66596603393555, 512.0936889648438)">
			<path d="M-21.89,5.78 L-23.44,5.78 L-23.44,0.06 L-29.72,0.06 L-29.72,5.78 L-31.27,5.78 L-31.27,-6.48 L-29.72,-6.48 L-29.72,-1.3 L-23.44,-1.3 L-23.44,-6.48 L-21.89,-6.48 L-21.89,5.78 ZM-15.2,-3.6 Q-14.01,-3.6 -13.16,-3.08 Q-12.31,-2.57 -11.86,-1.63 Q-11.4,-0.69 -11.4,0.56 L-11.4,1.47 L-17.7,1.47 Q-17.67,3.03 -16.91,3.85 Q-16.14,4.66 -14.77,4.66 Q-13.89,4.66 -13.21,4.5 Q-12.53,4.34 -11.81,4.03 L-11.81,5.35 Q-12.52,5.66 -13.2,5.8 Q-13.89,5.95 -14.84,5.95 Q-16.14,5.95 -17.15,5.42 Q-18.15,4.88 -18.71,3.83 Q-19.27,2.77 -19.27,1.25 Q-19.27,-0.27 -18.76,-1.35 Q-18.25,-2.43 -17.33,-3.01 Q-16.42,-3.6 -15.2,-3.6 ZM-15.21,-2.36 Q-16.29,-2.36 -16.92,-1.67 Q-17.55,-0.97 -17.67,0.27 L-12.98,0.27 Q-12.98,-0.52 -13.22,-1.11 Q-13.46,-1.69 -13.95,-2.03 Q-14.44,-2.36 -15.21,-2.36 ZM-4.77,-3.6 Q-4.51,-3.6 -4.22,-3.57 Q-3.91,-3.55 -3.69,-3.49 L-3.88,-2.1 Q-4.1,-2.15 -4.37,-2.19 Q-4.64,-2.22 -4.87,-2.22 Q-5.41,-2.22 -5.89,-2 Q-6.37,-1.78 -6.75,-1.37 Q-7.13,-0.97 -7.34,-0.4 Q-7.55,0.16 -7.55,0.87 L-7.55,5.78 L-9.07,5.78 L-9.07,-3.42 L-7.83,-3.42 L-7.66,-1.74 L-7.59,-1.74 Q-7.3,-2.26 -6.89,-2.68 Q-6.47,-3.1 -5.94,-3.35 Q-5.41,-3.6 -4.77,-3.6 ZM1.24,-3.6 Q2.42,-3.6 3.27,-3.08 Q4.12,-2.57 4.57,-1.63 Q5.03,-0.69 5.03,0.56 L5.03,1.47 L-1.27,1.47 Q-1.24,3.03 -0.47,3.85 Q0.29,4.66 1.66,4.66 Q2.54,4.66 3.22,4.5 Q3.9,4.34 4.62,4.03 L4.62,5.35 Q3.91,5.66 3.23,5.8 Q2.54,5.95 1.6,5.95 Q0.29,5.95 -0.71,5.42 Q-1.72,4.88 -2.28,3.83 Q-2.83,2.77 -2.83,1.25 Q-2.83,-0.27 -2.33,-1.35 Q-1.82,-2.43 -0.9,-3.01 Q0.02,-3.6 1.24,-3.6 ZM1.22,-2.36 Q0.14,-2.36 -0.49,-1.67 Q-1.12,-0.97 -1.24,0.27 L3.45,0.27 Q3.45,-0.52 3.21,-1.11 Q2.97,-1.69 2.48,-2.03 Q1.99,-2.36 1.22,-2.36 ZM13.36,3.24 Q13.36,4.13 12.91,4.73 Q12.47,5.33 11.64,5.64 Q10.82,5.95 9.68,5.95 Q8.72,5.95 8.03,5.79 Q7.33,5.64 6.8,5.37 L6.8,3.99 Q7.35,4.27 8.13,4.5 Q8.91,4.73 9.72,4.73 Q10.87,4.73 11.39,4.36 Q11.9,3.99 11.9,3.38 Q11.9,3.03 11.71,2.76 Q11.52,2.48 11.03,2.21 Q10.54,1.93 9.63,1.59 Q8.74,1.25 8.1,0.9 Q7.47,0.56 7.13,0.08 Q6.78,-0.41 6.78,-1.16 Q6.78,-2.33 7.73,-2.96 Q8.69,-3.6 10.23,-3.6 Q11.08,-3.6 11.8,-3.43 Q12.53,-3.27 13.17,-2.98 L12.66,-1.78 Q12.07,-2.02 11.43,-2.19 Q10.8,-2.36 10.13,-2.36 Q9.2,-2.36 8.71,-2.06 Q8.22,-1.76 8.22,-1.24 Q8.22,-0.87 8.45,-0.6 Q8.67,-0.33 9.19,-0.08 Q9.72,0.16 10.59,0.51 Q11.47,0.83 12.09,1.18 Q12.71,1.52 13.03,2.01 Q13.36,2.5 13.36,3.24 ZM17.09,-0.46 Q17.09,-0.18 17.06,0.27 Q17.03,0.71 17.02,1.04 L17.09,1.04 Q17.19,0.9 17.39,0.65 Q17.6,0.39 17.81,0.12 Q18.03,-0.15 18.18,-0.32 L21.12,-3.42 L22.89,-3.42 L19.16,0.51 L23.14,5.78 L21.32,5.78 L18.13,1.49 L17.09,2.39 L17.09,5.78 L15.59,5.78 L15.59,-7.27 L17.09,-7.27 L17.09,-0.46 ZM28.25,-3.58 Q29.93,-3.58 30.73,-2.84 Q31.54,-2.1 31.54,-0.49 L31.54,5.78 L30.44,5.78 L30.15,4.47 L30.08,4.47 Q29.69,4.97 29.27,5.3 Q28.85,5.64 28.31,5.79 Q27.76,5.95 26.99,5.95 Q26.17,5.95 25.51,5.66 Q24.85,5.37 24.47,4.76 Q24.09,4.15 24.09,3.22 Q24.09,1.85 25.17,1.1 Q26.26,0.35 28.5,0.28 L30.07,0.23 L30.07,-0.32 Q30.07,-1.47 29.57,-1.91 Q29.07,-2.36 28.16,-2.36 Q27.44,-2.36 26.78,-2.15 Q26.13,-1.93 25.57,-1.66 L25.1,-2.79 Q25.7,-3.12 26.53,-3.35 Q27.35,-3.58 28.25,-3.58 ZM28.69,1.33 Q26.98,1.4 26.31,1.88 Q25.65,2.36 25.65,3.24 Q25.65,4.01 26.12,4.37 Q26.59,4.73 27.34,4.73 Q28.5,4.73 29.27,4.09 Q30.05,3.44 30.05,2.1 L30.05,1.28 L28.69,1.33 Z" fill="#000000" fill-rule="evenodd" />
		</g>
	</g>
</svg>